<svg width="24" height="24" viewBox="0 0 24 24" fill="none" xmlns="http://www.w3.org/2000/svg">
<path d="M6.20196 14.6381C6.20196 15.7944 5.25733 16.7391 4.10098 16.7391C2.94463 16.7391 2 15.7944 2 14.6381C2 13.4817 2.94463 12.5371 4.10098 12.5371H6.20196V14.6381Z" fill="#4ADEDE" />
<path d="M7.25977 14.6381C7.25977 13.4817 8.20439 12.5371 9.36075 12.5371C10.5171 12.5371 11.4617 13.4817 11.4617 14.6381V19.8987C11.4617 21.055 10.5171 21.9997 9.36075 21.9997C8.20439 21.9997 7.25977 21.055 7.25977 19.8987V14.6381Z" fill="#4ADEDE" />
<path d="M9.36075 6.20196C8.20439 6.20196 7.25977 5.25733 7.25977 4.10098C7.25977 2.94463 8.20439 2 9.36075 2C10.5171 2 11.4617 2.94463 11.4617 4.10098V6.20196H9.36075Z" fill="#4ADEDE" />
<path d="M9.36157 7.25977C10.5179 7.25977 11.4626 8.20439 11.4626 9.36075C11.4626 10.5171 10.5179 11.4617 9.36157 11.4617H4.10098C2.94463 11.4617 2 10.5171 2 9.36075C2 8.20439 2.94463 7.25977 4.10098 7.25977H9.36157Z" fill="#4ADEDE" />
<path d="M17.7969 9.36075C17.7969 8.20439 18.7415 7.25977 19.8979 7.25977C21.0542 7.25977 21.9988 8.20439 21.9988 9.36075C21.9988 10.5171 21.0542 11.4617 19.8979 11.4617H17.7969V9.36075Z" fill="#4ADEDE" />
<path d="M16.7391 9.36157C16.7391 10.5179 15.7944 11.4626 14.6381 11.4626C13.4817 11.4626 12.5371 10.5179 12.5371 9.36157V4.10098C12.5371 2.94463 13.4817 2 14.6381 2C15.7944 2 16.7391 2.94463 16.7391 4.10098V9.36157Z" fill="#4ADEDE" />
<path d="M14.6381 17.7969C15.7944 17.7969 16.7391 18.7415 16.7391 19.8979C16.7391 21.0542 15.7944 21.9988 14.6381 21.9988C13.4817 21.9988 12.5371 21.0542 12.5371 19.8979V17.7969H14.6381Z" fill="#4ADEDE" />
<path d="M14.6381 16.7391C13.4817 16.7391 12.5371 15.7944 12.5371 14.6381C12.5371 13.4817 13.4817 12.5371 14.6381 12.5371H19.8987C21.055 12.5371 21.9997 13.4817 21.9997 14.6381C21.9997 15.7944 21.055 16.7391 19.8987 16.7391H14.6381Z" fill="#4ADEDE" />
</svg>
