<svg width="320" height="320" viewBox="0 0 320 320" fill="none" xmlns="http://www.w3.org/2000/svg">
<g clip-path="url(#clip0_8967_79728)">
<path fill-rule="evenodd" clip-rule="evenodd" d="M255.017 60.8354L255.558 60.4852C270.198 60.1828 288.04 64.8463 308.319 79.9032C301.947 85.6012 262.615 117.307 214.634 91.4425C215.904 89.921 216.881 88.1781 217.517 86.3015C218.027 84.0414 215.367 80.699 212.818 78.1046C224.195 67.322 239.122 61.0621 254.794 60.5011L255.017 60.8354ZM231.727 285.606C183.327 300.432 155.815 255.689 155.472 255.131L155.469 255.126C155.269 254.811 154.953 254.588 154.589 254.505C154.225 254.421 153.843 254.484 153.526 254.681C153.265 254.844 153.064 255.087 152.952 255.374C152.84 255.661 152.823 255.976 152.904 256.272C155.106 265.476 159.402 274.049 165.457 281.325C146.102 272.03 130.411 256.623 126.429 238.207C127.735 237.809 131.208 233.799 131.415 233.432C124.23 237.603 120.996 237.634 112.442 238.812L111.582 238.939V239.799C111.589 241.954 110.765 244.029 109.282 245.593C107.799 247.158 105.77 248.092 103.617 248.203C97.2393 245.629 77.3562 242.792 70.9224 241.874C70.8312 241.861 70.7428 241.848 70.6571 241.836C72.9242 240.369 75.2932 239.066 77.746 237.937L79.6895 237.014L77.7779 236.043C74.7968 234.74 71.7501 233.592 68.6499 232.605C74.2414 230.026 81.6967 231.411 81.7126 231.411L83.7836 231.777C81.394 227.002 76.2645 224.185 71.8997 221.288C79.0842 220.683 89.837 226.159 92.115 227.368C92.4495 229.119 92.8478 231.538 94.0107 232.732C93.8673 228.976 93.5647 223.485 93.2142 220.142C96.91 224.471 104.588 232.637 104.62 232.652C104.511 230.493 103.602 228.451 102.071 226.923C100.176 213.187 109.527 200.39 112.123 197.143C113.047 199.037 114.067 200.979 115.039 202.841C115.066 202.894 115.093 202.946 115.12 202.998C117.349 207.296 119.341 211.135 119.435 212.582L113.732 223.723C113.602 223.968 113.575 224.255 113.655 224.52C113.736 224.786 113.918 225.008 114.162 225.14C114.308 225.214 114.469 225.253 114.632 225.253C114.796 225.253 114.957 225.214 115.102 225.14L122.127 221.957C122.526 225.586 122.94 229.215 123.338 232.844C123.338 233.798 124.931 233.751 125.329 233.21L130.108 223.564L136.48 232.971C136.942 233.639 138.44 233.082 138.408 232.366C138.408 228.689 138.408 225.029 138.297 221.352L145.704 222.18C145.846 222.186 145.988 222.164 146.122 222.116C146.256 222.067 146.379 221.993 146.484 221.897C146.589 221.801 146.674 221.685 146.735 221.556C146.795 221.427 146.829 221.287 146.835 221.145C146.843 220.999 146.82 220.852 146.768 220.715C146.716 220.578 146.636 220.453 146.532 220.349C146.532 220.349 137.197 211.866 134.553 203.86C131.909 195.854 132.96 176.436 132.96 176.372C130.156 181.147 131.239 200.517 132.562 204.528C134.537 210.481 139.89 216.593 142.932 219.744L136.178 218.996C136.178 222.291 136.178 225.602 136.289 228.896L129.79 219.346C128.197 222.53 126.604 225.713 125.011 229.008L123.864 218.837L116.886 221.877L121.379 213.107C121.363 212.96 121.402 212.812 121.49 212.693C121.618 210.831 119.356 206.486 116.839 201.663C114.322 196.841 111.311 191.063 110.721 187.737C109.718 182.15 114.592 166.87 115.899 162.923C128.389 166.06 141.359 166.821 154.131 165.167C167.039 163.634 179.613 160.017 191.36 154.455C193.51 158.116 201.937 173.873 199.325 191.954V192.48L199.691 192.846C199.691 192.846 221.42 214.81 212.674 231.729C212.786 228.002 212.556 224.273 211.989 220.588C211.843 219.635 211.548 218.711 211.113 217.85C210.492 216.768 209.664 216.37 208.612 216.943C207.893 217.438 207.338 218.136 207.019 218.949C203.371 226.143 202.543 241.47 202.527 241.518C202.415 242.568 204.12 244.144 204.646 241.645C204.646 241.645 205.458 226.7 208.915 219.903C209.059 219.614 209.218 219.332 209.393 219.06C209.651 219.679 209.838 220.325 209.95 220.986C210.587 225.241 210.764 229.553 210.476 233.846C210.365 234.897 210.715 235.438 211.527 235.438C212.34 235.438 213.328 234.371 214.713 232.652C214.716 232.649 214.719 232.646 214.722 232.642C218.229 228.294 225.328 219.492 232.396 221.941C229.385 224.774 221.691 232.398 221.93 236.266V238.191L223.523 237.236C223.523 237.236 231.806 231.92 240.058 233.385C236.697 235.645 229.815 240.022 226.964 240.07C225.466 240.722 225.753 241.995 226.836 242.186C230.062 242.441 233.228 243.198 236.219 244.431C232.38 244.94 218.696 247.439 216.434 250.145C216.434 250.145 208.66 259.615 203.021 254.426C202.67 253.996 199.946 250.495 200.185 248.617L200.09 248.028C196.314 240.165 182.057 229.469 178.122 235.295C180.427 235.067 182.753 235.344 184.94 236.106C185.373 242.453 187.373 248.593 190.762 253.979C194.151 259.365 198.822 263.827 204.359 266.968C209.942 270.119 216.206 271.872 222.615 272.077C229.208 272.299 235.75 270.854 241.635 267.875C251.193 263.021 259.621 253.869 264.384 239.767C261.628 260.347 252.277 273.924 239.66 281.834C238.768 282.391 231.695 285.527 231.695 285.527L231.727 285.606ZM169.026 285.177C174.082 290.271 179.937 294.507 186.358 297.719C193.776 301.406 201.782 303.771 210.014 304.706C218.235 305.72 226.571 305.251 234.626 303.321C243.335 301.276 251.483 297.328 258.482 291.76C265.481 286.193 271.158 279.144 275.105 271.122C286.399 247.996 284.456 223.962 278.609 210.401C277.174 206.643 274.632 203.649 271.601 201C268.797 198.852 266.372 199.234 263.601 201C260.271 203.133 257.978 207.982 256.401 217.818C255.684 222.386 250.779 235.089 242.958 245.8C238.561 251.817 233.033 257.976 226.836 261C223.735 262.599 219.685 263.359 216.195 263.4C212.705 263.442 207.832 263.308 205.394 261C199.978 258.517 193.686 253.265 187.601 245.8C186.692 243.142 187.411 239.852 187.091 237.061C193.574 240.42 197.302 247.28 197.987 248.633C197.987 251.529 201.332 255.731 201.348 255.747C208.246 262.734 217.119 253.376 218.091 251.131C222.36 248.839 254.935 246.639 230.801 241.8C234.895 239.747 239.215 236.376 242.958 233.735C243.072 233.661 243.17 233.565 243.247 233.453C243.324 233.341 243.219 233.292 243.247 233.159C243.272 233.293 243.275 233.026 243.247 233.159C243.222 233.025 243.032 232.955 242.958 232.841C242.828 232.63 240.64 232.265 240.401 232.2C233.201 231.4 227.217 233.602 223.601 235.4C225.847 230.896 234.531 222.632 234.546 222.6C234.481 222.714 234.651 222.521 234.546 222.6C234.612 222.486 234.784 222.256 234.801 222.125C234.817 221.995 234.836 221.927 234.801 221.8C234.883 221.903 234.765 221.674 234.801 221.8C234.706 221.67 234.146 221.069 234.001 221C226.001 219.06 220.173 223.971 215.601 229C218.882 213.227 203.781 194.938 201.201 192.2C203.686 173.912 194.758 157.827 192.401 153.8C196.347 151.829 200.892 149.168 204.518 146.656C212.613 141.315 219.371 134.186 224.272 125.822C229.741 130.65 236.017 134.481 242.814 137.138C254.857 142.025 271.265 145.415 293.568 145.144H295.161C294.97 144.667 294.778 144.189 294.603 143.712C294.603 143.616 282.719 113.614 266.598 102.329C282.982 99.1645 298.212 91.6549 310.693 80.5876L311.601 79.7281L310.613 78.98C290.828 64.0027 273.241 58.7185 258.537 58.2887C280.107 41.5129 284.137 9.10717 284.153 8.94801C284.189 8.50497 284.247 8.06405 284.328 7.62695L283.006 7.7702C227.075 13.4364 209.138 41.0991 205.952 46.8608C189.588 36.5559 170.438 31.5529 151.12 32.5361C122.844 33.9049 100.654 47.2428 94.409 52.3042C79.0842 32.5361 46.4274 25.0235 17.8487 26.1695C20.1745 45.7944 32.1858 59.2596 48.6098 67.4247C24.5871 66.4857 13.3564 74.3006 13.3245 74.3324L12.4006 74.9532L13.0696 75.8445C26.435 93.3525 40.8 100.213 51.6006 102.6C34.4916 111.116 26.8006 123.8 26.8006 123.8C27.6006 124.374 26.6253 124.119 26.8006 123.8L27.3271 125.137C51.6006 135.627 68.9692 128.554 73.7164 126.262C75.1337 130.688 77.6561 135.349 80.2948 139.176C85.7588 146.939 93.0735 153.219 101.578 157.448C105.527 159.45 109.655 161.08 113.907 162.318C112.522 166.488 107.535 182.07 108.666 188.071C109.21 190.401 110.023 192.66 111.088 194.803C110.212 195.806 98.8109 210.18 99.3685 225.253C96.7241 222.324 93.4691 218.815 92.115 217C91.2866 216.141 90.8962 216.045 90.8006 217C90.8006 217 91.0112 221.774 91.6006 225.8C87.0923 223.556 75.3884 218.054 68.5862 220.458C68.5862 220.458 67.2003 220.62 68.5862 221.479C68.5862 221.479 76.2168 226.951 79.6895 229.8C76.169 229.578 69.4061 229.612 65.2006 232.605C63.974 233.464 66.0006 233.8 66.0006 233.8C66.0006 233.8 71.3437 236.432 74.8006 237.8C72.2836 239.09 68.3174 241.057 67.6006 242.6C67.6006 242.6 66.5471 243.141 68.2995 243.428C68.2995 243.428 95.1258 246.818 102.374 249.874C103.662 250.06 104.974 249.989 106.234 249.664C107.493 249.34 108.676 248.769 109.714 247.984C110.751 247.199 111.622 246.217 112.276 245.093C112.931 243.969 113.031 243.089 113.201 241.8C113.201 241.8 112.401 241 113.201 241C115.16 240.714 120.55 239.592 124.342 238.669C128.93 259.121 147.074 275.913 168.946 285.145L169.026 285.177ZM193.654 254.474C196.73 258.852 200.74 262.494 205.394 265.138C210.754 268.171 216.781 269.834 222.939 269.982C229.097 270.129 235.196 268.755 240.696 265.981C252.149 260.14 261.93 247.741 265.228 227.448C265.467 225.984 267.251 225.283 267.315 227.623C267.076 255.97 256.323 273.892 240.775 283.633C238.232 285.493 235.471 287.037 232.555 288.232C194.323 299.931 168.516 276.056 158.161 263.467C161.23 271.215 165.917 278.22 171.909 284.015C176.55 288.502 181.846 292.259 187.616 295.156C194.742 298.724 202.434 301.029 210.349 301.968C218.225 302.921 226.209 302.463 233.925 300.615C242.241 298.674 250.023 294.913 256.708 289.603C263.394 284.294 268.817 277.569 272.588 269.913C283.468 247.63 281.652 224.535 276.044 211.547C274.8 208.211 272.767 205.224 270.118 202.841C269.425 202.166 268.529 201.737 267.568 201.619C266.607 201.501 265.634 201.701 264.798 202.189C262.106 203.908 259.716 208.81 258.298 217.818C257.534 222.593 252.595 235.756 244.503 246.834C239.867 253.201 234.196 258.915 227.617 262.146C224.146 263.94 220.304 264.901 216.396 264.951C212.488 265 208.623 264.138 205.108 262.432C200.887 260.411 197.019 257.724 193.654 254.474ZM164.533 189.01C162.845 196.204 161.146 203.388 159.436 210.561L149.878 216.545C149.177 217.023 149.878 218.439 150.26 218.487L158.225 219.808C157.731 222.195 157.03 227.766 160.216 231.236C161.491 232.621 161.969 230.934 162.096 230.695L164.884 225.729C165.626 227.271 166.671 228.648 167.958 229.777C169.244 230.907 170.745 231.765 172.371 232.302C173.964 232.859 173.773 231.3 173.773 231.3C173.773 229.406 173.773 227.527 173.884 225.633C176.446 227.336 179.524 228.085 182.582 227.75C184.94 227.48 183.156 225.904 183.156 225.904C183.156 225.904 175.334 218.996 175.509 216.275C176.531 214.062 177.803 211.974 179.301 210.051C184.876 201.807 194.148 188.071 193.319 176.754C191.424 188.23 182.168 202.22 177.548 208.873C177.498 208.948 177.448 209.022 177.398 209.096C175.118 212.482 173.469 214.932 173.391 216.131C173.215 218.742 177.278 223.166 179.763 225.681C177.459 225.365 175.304 224.361 173.582 222.8L171.829 221.081C171.829 223.978 171.718 226.875 171.654 229.772C167.401 227.702 165.441 221.384 165.059 221.32C163.96 223.278 161.873 226.62 160.854 228.578C158.846 224.822 160.503 219.299 160.503 219.283L160.838 218.137L153.382 216.895L161.029 212.12C161.172 211.898 161.332 211.675 161.491 211.468L166.748 189.185V188.723L163.689 174.685C162.51 178.616 164.31 184.235 164.629 189.01H164.533ZM73.7316 124.692C73.7266 124.694 73.7215 124.697 73.7164 124.7C69.9236 126.639 51.9407 134.561 29.4777 123.8C31.4849 120.617 39.0358 110.383 54.4402 103.475C60.0875 104.33 65.8516 103.989 71.358 102.473C70.9425 109.96 71.7389 117.466 73.7164 124.7C73.7214 124.718 73.7265 124.737 73.7316 124.755V124.692ZM71.5014 100.212C67.2481 101.661 41.3775 108.696 15.5707 75.5262C18.7567 73.7117 30.2901 68.3479 51.3179 69.7167V68.9209C59.2804 73.0581 67.731 76.1808 76.4716 78.216C74.4345 83.4246 72.9813 88.8427 72.1386 94.3711C71.836 96.3129 71.6129 98.2707 71.4536 100.212H71.5014ZM77.3159 76.2424C26.451 64.0186 21.2896 35.21 20.1107 28.4933C69.4942 26.9017 89.2476 48.7548 92.9912 53.6252C86.2225 59.9519 80.879 67.6454 77.3159 76.1947V76.2424ZM263.3 102.839C248.708 104.876 231.583 103.109 213.232 93.1297C212.005 94.6258 210.795 95.9469 210.046 96.7586C212.196 98.7004 217.517 104.016 215.956 107.9C215.924 108.095 215.924 108.294 215.956 108.489C215.956 110.542 217.549 114.856 221.643 119.981C225.737 125.106 232.794 130.82 243.77 135.292C255.128 139.924 270.724 143.25 291.927 143.107C289.251 136.741 277.813 111.274 263.364 102.902L263.3 102.839ZM211.304 76.6403C211.31 76.6353 211.315 76.6303 211.32 76.6252C223.14 65.411 238.662 58.9104 254.953 58.3524C275.152 44.5529 280.824 16.5242 281.859 10.1099C221.786 16.6197 207.449 48.723 207.402 48.8026L206.892 49.9008L205.952 49.2482C189.745 38.7616 170.643 33.6436 151.359 34.6211C122.143 36.0377 99.6659 50.3783 95.094 54.5802C83.2897 65.0214 76.5672 79.8077 74.2573 94.6099C71.7563 110.781 74.56 127.032 82.1268 137.902C87.4043 145.339 94.4424 151.354 102.613 155.41C117.46 162.971 135.907 164.96 154.036 162.875C172.164 160.79 189.926 154.392 203.419 144.969C211.412 139.687 218.048 132.599 222.79 124.278C221.791 123.266 220.844 122.204 219.954 121.095C215.51 115.795 213.917 110.829 213.917 108.441C213.903 107.97 213.979 107.5 214.14 107.056C215.494 103.746 208.023 97.6658 208.007 97.6499L207.099 96.9178L207.911 96.0901C207.911 96.0901 214.729 89.071 215.51 85.84C216.163 82.9591 207.29 75.8763 207.258 75.8604L206.653 75.367L206.94 74.6348C206.94 74.6348 209.441 68.5071 208.867 66.3424C208.294 64.1778 199.755 61.472 199.739 61.472C205.219 58.9572 210.747 65.1646 210.89 65.8172C211.48 68.1091 209.839 72.8841 209.154 74.6985C209.661 75.1257 210.435 75.7888 211.32 76.6252C211.326 76.6303 211.331 76.6353 211.336 76.6403H211.304Z" fill="url(#paint0_linear_8967_79728)"/>
<path d="M254.953 58.3524C238.662 58.9104 223.14 65.411 211.32 76.6252C210.435 75.7888 209.661 75.1257 209.154 74.6985C209.839 72.8841 211.48 68.1091 210.89 65.8172C210.747 65.1646 205.219 58.9572 199.739 61.472C199.755 61.472 208.294 64.1778 208.867 66.3424C209.441 68.5071 206.94 74.6348 206.94 74.6348L206.653 75.367L207.258 75.8604C207.29 75.8763 216.163 82.9591 215.51 85.84C214.729 89.071 207.911 96.0901 207.911 96.0901L207.099 96.9178L208.007 97.6499C208.023 97.6658 215.494 103.746 214.14 107.056C213.979 107.5 213.903 107.97 213.917 108.441C213.917 110.829 215.51 115.795 219.954 121.095C220.844 122.204 221.791 123.266 222.79 124.278C218.048 132.599 211.412 139.687 203.419 144.969C189.926 154.392 172.164 160.79 154.036 162.875C135.907 164.96 117.46 162.971 102.613 155.41C94.4424 151.354 87.4043 145.339 82.1268 137.902C74.56 127.032 71.7563 110.781 74.2573 94.6099C76.5672 79.8077 83.2897 65.0214 95.094 54.5802C99.6659 50.3783 122.143 36.0377 151.359 34.6211C170.643 33.6436 189.745 38.7616 205.952 49.2482L206.892 49.9008L207.402 48.8026C207.449 48.723 221.786 16.6197 281.859 10.1099C280.824 16.5242 275.152 44.5529 254.953 58.3524Z" fill="url(#paint1_linear_8967_79728)"/>
<path d="M255.017 60.8354L255.558 60.4852C270.198 60.1828 288.04 64.8463 308.319 79.9032C301.947 85.6012 262.615 117.307 214.634 91.4425C215.904 89.921 216.881 88.1781 217.517 86.3015C218.027 84.0414 215.367 80.699 212.818 78.1046C224.195 67.322 239.122 61.0621 254.794 60.5011L255.017 60.8354Z" fill="url(#paint2_linear_8967_79728)"/>
<path d="M263.3 102.839C248.708 104.876 231.583 103.109 213.232 93.1297C212.005 94.6258 210.795 95.9469 210.046 96.7586C212.196 98.7004 217.517 104.016 215.956 107.9C215.924 108.095 215.924 108.294 215.956 108.489C215.956 110.542 217.549 114.856 221.643 119.981C225.737 125.106 232.794 130.82 243.77 135.292C255.128 139.924 270.724 143.25 291.927 143.107C289.251 136.741 277.813 111.274 263.364 102.902L263.3 102.839Z" fill="url(#paint3_linear_8967_79728)"/>
<path d="M77.3159 76.2424C26.451 64.0186 21.2896 35.21 20.1107 28.4933C69.4942 26.9017 89.2476 48.7548 92.9912 53.6252C86.2225 59.9519 80.879 67.6454 77.3159 76.1947V76.2424Z" fill="url(#paint4_linear_8967_79728)"/>
<path d="M71.5014 100.212C67.2481 101.661 41.3775 108.696 15.5707 75.5262C18.7567 73.7117 30.2901 68.3479 51.3179 69.7167V68.9209C59.2804 73.0581 67.731 76.1808 76.4716 78.216C74.4345 83.4246 72.9813 88.8427 72.1386 94.3711C71.836 96.3129 71.6129 98.2707 71.4536 100.212H71.5014Z" fill="url(#paint5_linear_8967_79728)"/>
<path d="M73.7164 124.7C69.9236 126.639 51.9407 134.561 29.4777 123.8C31.4849 120.617 39.0358 110.383 54.4402 103.475C60.0875 104.33 65.8516 103.989 71.358 102.473C70.9425 109.96 71.7389 117.466 73.7164 124.7Z" fill="url(#paint6_linear_8967_79728)"/>
<path fill-rule="evenodd" clip-rule="evenodd" d="M231.727 285.606C183.327 300.432 155.815 255.689 155.472 255.131L155.469 255.126C155.269 254.811 154.953 254.588 154.589 254.505C154.225 254.421 153.843 254.484 153.526 254.681C153.265 254.844 153.064 255.087 152.952 255.374C152.84 255.661 152.823 255.976 152.904 256.272C155.106 265.476 159.402 274.049 165.457 281.325C146.102 272.03 130.411 256.623 126.429 238.207C127.735 237.809 131.208 233.799 131.415 233.432C124.23 237.603 120.996 237.634 112.442 238.812L111.582 238.939V239.799C111.589 241.954 110.765 244.029 109.282 245.593C107.799 247.158 105.77 248.092 103.617 248.203C97.2393 245.629 77.3562 242.792 70.9224 241.874L70.6571 241.836C72.9242 240.369 75.2932 239.066 77.746 237.937L79.6895 237.014L77.7779 236.043C74.7968 234.74 71.7501 233.592 68.6499 232.605C74.2414 230.026 81.6967 231.411 81.7126 231.411L83.7836 231.777C81.394 227.002 76.2645 224.185 71.8997 221.288C79.0842 220.683 89.837 226.159 92.115 227.368C92.4495 229.119 92.8478 231.538 94.0107 232.732C93.8673 228.976 93.5647 223.485 93.2142 220.142C96.91 224.471 104.588 232.637 104.62 232.652C104.511 230.493 103.602 228.451 102.071 226.923C100.176 213.187 109.527 200.39 112.123 197.143C113.047 199.037 114.067 200.979 115.039 202.841L115.12 202.998C117.349 207.296 119.341 211.135 119.435 212.582L113.732 223.723C113.602 223.968 113.575 224.255 113.655 224.52C113.736 224.786 113.918 225.008 114.162 225.14C114.308 225.214 114.469 225.253 114.632 225.253C114.796 225.253 114.957 225.214 115.102 225.14L122.127 221.957C122.526 225.586 122.94 229.215 123.338 232.844C123.338 233.798 124.931 233.751 125.329 233.21L130.108 223.564L136.48 232.971C136.942 233.639 138.44 233.082 138.408 232.366C138.408 228.689 138.408 225.029 138.297 221.352L145.704 222.18C145.846 222.186 145.988 222.164 146.122 222.116C146.256 222.067 146.379 221.993 146.484 221.897C146.589 221.801 146.674 221.685 146.735 221.556C146.795 221.427 146.829 221.287 146.835 221.145C146.843 220.999 146.82 220.852 146.768 220.715C146.716 220.578 146.636 220.453 146.532 220.349C146.532 220.349 137.197 211.866 134.553 203.86C131.909 195.854 132.96 176.436 132.96 176.372C130.156 181.147 131.239 200.517 132.562 204.528C134.537 210.481 139.89 216.593 142.932 219.744L136.178 218.996C136.178 222.291 136.178 225.602 136.289 228.896L129.79 219.346C128.197 222.53 126.604 225.713 125.011 229.008L123.864 218.837L116.886 221.877L121.379 213.107C121.363 212.96 121.402 212.812 121.49 212.693C121.618 210.831 119.356 206.486 116.839 201.663C114.322 196.841 111.311 191.063 110.721 187.737C109.718 182.15 114.592 166.87 115.899 162.923C128.389 166.06 141.359 166.821 154.131 165.167C167.039 163.634 179.613 160.017 191.36 154.455C193.51 158.116 201.937 173.873 199.325 191.954V192.48L199.691 192.846C199.691 192.846 221.42 214.81 212.674 231.729C212.786 228.002 212.556 224.273 211.989 220.588C211.843 219.635 211.548 218.711 211.113 217.85C210.492 216.768 209.664 216.37 208.612 216.943C207.893 217.438 207.338 218.136 207.019 218.949C203.371 226.143 202.543 241.47 202.527 241.518C202.415 242.568 204.12 244.144 204.646 241.645C204.646 241.645 205.458 226.7 208.915 219.903C209.059 219.614 209.218 219.332 209.393 219.06C209.651 219.679 209.838 220.325 209.95 220.986C210.587 225.241 210.764 229.553 210.476 233.846C210.365 234.897 210.715 235.438 211.527 235.438C212.34 235.438 213.328 234.371 214.713 232.652L214.722 232.642C218.229 228.294 225.328 219.492 232.396 221.941C229.385 224.774 221.691 232.398 221.93 236.266V238.191L223.523 237.236C223.523 237.236 231.806 231.92 240.058 233.385C236.697 235.645 229.815 240.022 226.964 240.07C225.466 240.722 225.753 241.995 226.836 242.186C230.062 242.441 233.228 243.198 236.219 244.431C232.38 244.94 218.696 247.439 216.434 250.145C216.434 250.145 208.66 259.615 203.021 254.426C202.67 253.996 199.946 250.495 200.185 248.617L200.09 248.028C196.314 240.165 182.057 229.469 178.122 235.295C180.427 235.067 182.753 235.344 184.94 236.106C185.373 242.453 187.373 248.593 190.762 253.979C194.151 259.365 198.822 263.827 204.359 266.968C209.942 270.119 216.206 271.872 222.615 272.077C229.208 272.299 235.75 270.854 241.635 267.875C251.193 263.021 259.621 253.869 264.384 239.767C261.628 260.347 252.277 273.924 239.66 281.834C238.768 282.391 231.695 285.527 231.695 285.527L231.727 285.606ZM159.436 210.561C161.146 203.388 162.845 196.204 164.533 189.01H164.629C164.31 184.235 162.51 178.616 163.689 174.685L166.748 188.723V189.185L161.491 211.468C161.332 211.675 161.172 211.898 161.029 212.12L153.382 216.895L160.838 218.137L160.503 219.283C160.503 219.299 158.846 224.822 160.854 228.578C161.873 226.62 163.96 223.278 165.059 221.32C165.441 221.384 167.401 227.702 171.654 229.772C171.718 226.875 171.829 223.978 171.829 221.081L173.582 222.8C175.304 224.361 177.459 225.365 179.763 225.681C177.278 223.166 173.215 218.742 173.391 216.131C173.469 214.932 175.118 212.482 177.398 209.096L177.548 208.873C182.168 202.22 191.424 188.23 193.319 176.754C194.148 188.071 184.876 201.807 179.301 210.051C177.803 211.974 176.531 214.062 175.509 216.275C175.334 218.996 183.156 225.904 183.156 225.904C183.156 225.904 184.94 227.48 182.582 227.75C179.524 228.085 176.446 227.336 173.884 225.633C173.773 227.527 173.773 229.406 173.773 231.3C173.773 231.3 173.964 232.859 172.371 232.302C170.745 231.765 169.244 230.907 167.958 229.777C166.671 228.648 165.626 227.271 164.884 225.729L162.096 230.695C161.969 230.934 161.491 232.621 160.216 231.236C157.03 227.766 157.731 222.195 158.225 219.808L150.26 218.487C149.878 218.439 149.177 217.023 149.878 216.545L159.436 210.561Z" fill="url(#paint7_linear_8967_79728)"/>
<path d="M193.654 254.474C196.73 258.852 200.74 262.494 205.394 265.138C210.754 268.171 216.781 269.834 222.939 269.982C229.097 270.129 235.196 268.755 240.696 265.981C252.149 260.14 261.93 247.741 265.228 227.448C265.467 225.984 267.251 225.283 267.315 227.623C267.076 255.97 256.323 273.892 240.775 283.633C238.232 285.493 235.471 287.037 232.555 288.232C194.323 299.931 168.516 276.056 158.161 263.467C161.23 271.215 165.917 278.22 171.909 284.015C176.55 288.502 181.846 292.259 187.616 295.156C194.742 298.724 202.434 301.029 210.349 301.968C218.225 302.921 226.209 302.463 233.925 300.615C242.241 298.674 250.023 294.913 256.708 289.603C263.394 284.294 268.817 277.569 272.588 269.913C283.468 247.63 281.652 224.535 276.044 211.547C274.8 208.211 272.767 205.224 270.118 202.841C269.425 202.166 268.529 201.737 267.568 201.619C266.607 201.501 265.634 201.701 264.798 202.189C262.106 203.908 259.716 208.81 258.298 217.818C257.534 222.593 252.595 235.756 244.503 246.834C239.867 253.201 234.196 258.915 227.617 262.146C224.146 263.94 220.304 264.901 216.396 264.951C212.488 265 208.623 264.138 205.108 262.432C200.887 260.411 197.019 257.724 193.654 254.474Z" fill="url(#paint8_linear_8967_79728)"/>
<path fill-rule="evenodd" clip-rule="evenodd" d="M258.544 218.521C259.984 209.465 262.384 204.537 265.088 202.809C265.926 202.32 266.901 202.12 267.863 202.238C268.825 202.357 269.722 202.788 270.416 203.465C273.087 205.832 275.141 208.814 276.4 212.153C282.032 225.209 283.872 248.409 272.928 270.825C260.592 295.321 235.52 306.025 210.416 303.049C195.909 301.42 182.336 295.08 171.776 285.001C165.773 279.181 161.077 272.151 158 264.377C168.384 277.001 194.208 301.001 232.688 289.257C235.617 288.061 238.389 286.514 240.944 284.649C256.576 274.857 267.376 256.841 267.616 228.345L265.504 228.169C262.192 248.569 252.4 261.001 240.864 266.905C235.271 269.742 229.053 271.123 222.784 270.921C216.695 270.746 210.739 269.099 205.424 266.121C200.742 263.468 196.708 259.806 193.616 255.401C196.991 258.682 200.883 261.385 205.136 263.401C208.665 265.122 212.547 265.994 216.473 265.946C220.398 265.899 224.258 264.934 227.744 263.129C234.336 259.929 240.032 254.121 244.688 247.737C252.816 236.537 257.776 223.417 258.544 218.569V218.521Z" fill="#777ABA"/>
<path fill-rule="evenodd" clip-rule="evenodd" d="M210.56 70.2002C210.56 70.2002 259.264 18.2963 280.16 10.6963C280.16 10.6963 262.08 13.1923 252.256 15.8802C262.006 12.762 272.055 10.6759 282.24 9.65625C281.184 16.0562 275.52 44.2803 255.216 58.1522C238.847 58.7135 223.25 65.2538 211.376 76.5362C210.688 75.8454 209.962 75.1937 209.2 74.5843C209.74 73.1512 210.194 71.6872 210.56 70.2002Z" fill="#777ABA"/>
<path fill-rule="evenodd" clip-rule="evenodd" d="M216.032 81.8002C216.032 81.8002 291.648 76.3602 307.232 79.6082C304.059 76.9574 300.742 74.4842 297.296 72.2002C301.266 74.5205 305.101 77.0632 308.784 79.8162C302.384 85.5442 262.896 117.416 214.688 91.4162C215.969 89.884 216.951 88.1258 217.584 86.2322C217.662 84.5815 217.088 82.9664 215.984 81.7362L216.032 81.8002Z" fill="#777ABA"/>
<path fill-rule="evenodd" clip-rule="evenodd" d="M237.728 102.136C237.728 102.136 271.232 138.504 290.672 139.528C291.392 141.128 291.952 142.408 292.272 143.32C270.976 143.416 255.312 140.12 243.92 135.448C232.944 130.968 225.952 125.224 221.68 120.056C217.408 114.888 216.064 110.6 216.048 108.52C216.016 108.324 216.016 108.124 216.048 107.928C217.648 104.088 212.272 98.7441 210.128 96.7281C210.88 95.9121 212.08 94.5841 213.328 93.0801C220.953 97.2858 229.168 100.317 237.696 102.072L237.728 102.136Z" fill="#777ABA"/>
<path fill-rule="evenodd" clip-rule="evenodd" d="M18.3203 28.2C18.3203 28.2 50.3203 27.416 82.3203 65.608C80.1639 68.9612 78.301 72.4943 76.7523 76.168C25.6483 63.88 19.5683 34.888 18.3843 28.168L18.3203 28.2Z" fill="#777ABA"/>
<path fill-rule="evenodd" clip-rule="evenodd" d="M19.5839 73.2722C19.5839 73.2722 49.8559 87.2402 74.6719 81.8002C72.6999 87.7724 71.4589 93.9615 70.9759 100.232C66.6879 101.688 40.7039 108.76 14.7838 75.4162C16.3269 74.5713 17.9314 73.8439 19.5839 73.2402V73.2722Z" fill="#777ABA"/>
<path fill-rule="evenodd" clip-rule="evenodd" d="M28.7512 124.184C28.7512 124.184 48.6232 110.824 70.7352 106.584C70.7055 112.859 71.5345 119.109 73.1992 125.16C69.4392 127.08 51.3592 135.096 28.7512 124.264V124.184Z" fill="#777ABA"/>
<path fill-rule="evenodd" clip-rule="evenodd" d="M127.888 163.608C206.592 157.4 214.16 110.312 214.384 108.776C214.384 111.832 216.848 117.08 220.592 121.576C221.44 122.6 222.384 123.64 223.44 124.776C218.683 133.144 212.016 140.271 203.984 145.576C189.094 155.521 172.025 161.728 154.224 163.672C145.478 164.744 136.634 164.744 127.888 163.672V163.608Z" fill="#777ABA"/>
<path fill-rule="evenodd" clip-rule="evenodd" d="M199.6 179.56C200.08 183.855 200.016 188.193 199.408 192.472V193L199.776 193.368C199.776 193.368 219.376 213.192 214 229.736C215.776 218.088 204.4 202.376 196.688 193.8C197.984 189.288 198.288 173.944 198.08 171.544C198.812 174.162 199.315 176.839 199.584 179.544L199.6 179.56Z" fill="#777ABA"/>
<path fill-rule="evenodd" clip-rule="evenodd" d="M191.6 183.128C188.224 193.192 181.088 203.928 177.2 209.496C174.832 213.016 173.12 215.56 173.04 216.792C172.864 219.416 176.928 223.864 179.44 226.392C179.44 226.392 170.688 222.104 171.44 215.032C171.44 215.032 189.376 185.992 188.432 180.968C188.432 180.968 185.696 172.472 183.984 171.096C183.984 171.096 192.544 175.768 191.488 183.16L191.6 183.128Z" fill="#777ABA"/>
<path fill-rule="evenodd" clip-rule="evenodd" d="M132.704 176.744C129.888 181.544 130.976 201 132.32 205.032C134.304 211.032 139.68 217.176 142.736 220.344C136.656 217.784 130.176 204.856 130.176 204.856C128.88 196.456 127.6 184.056 132.704 176.744Z" fill="#777ABA"/>
<path fill-rule="evenodd" clip-rule="evenodd" d="M157.809 87.25C161.349 75.4382 170.639 73.5314 178.709 83.1159C183.081 88.7016 186.02 95.1855 187.292 102.049C188.865 108.88 188.762 115.966 186.991 122.753C183.452 134.565 174.161 136.472 166.091 126.87C161.722 121.271 158.784 114.777 157.509 107.904C155.935 101.078 156.038 93.9979 157.809 87.2163V87.25ZM169.702 90.1524C167.543 90.6417 165.914 92.7679 165.03 95.8221C163.26 102.082 164.8 111.768 169.082 116.982C173.365 122.196 177.931 120.357 179.7 114.164C181.47 107.971 180.036 98.2351 175.718 93.021C173.949 90.7936 171.843 89.6462 169.702 90.1524Z" fill="#552F82"/>
<path fill-rule="evenodd" clip-rule="evenodd" d="M159.268 88.2639C162.453 77.127 170.815 75.3292 178.078 84.366C182.012 89.6325 184.657 95.7459 185.802 102.217C187.218 108.658 187.126 115.339 185.532 121.738C182.346 132.875 173.984 134.673 166.722 125.62C162.79 120.341 160.145 114.217 158.997 107.738C157.581 101.302 157.674 94.6262 159.268 88.2321V88.2639ZM169.971 91.0004C168.028 91.4618 166.563 93.4664 165.766 96.3461C164.173 102.249 165.559 111.381 169.413 116.297C173.268 121.213 177.377 119.479 178.97 113.64C180.562 107.801 179.272 98.6212 175.386 93.7051C173.793 91.605 171.898 90.5231 169.971 91.0004Z" fill="white"/>
<path fill-rule="evenodd" clip-rule="evenodd" d="M169.2 116.584C164.656 110.776 162.992 99.8958 164.896 92.9358C166.64 86.5358 170.896 84.7918 175.008 90.0238C179.568 95.8318 181.232 106.712 179.312 113.672C177.568 120.072 173.328 121.8 169.2 116.584Z" fill="#552F82"/>
<path fill-rule="evenodd" clip-rule="evenodd" d="M102.464 89.8428C98.8001 80.011 91.099 79.0663 85.0875 87.7085C81.8511 92.7083 79.8418 98.3802 79.2183 104.276C78.3339 110.145 78.8577 116.136 80.7478 121.77C84.3049 131.584 92.1128 132.529 98.1243 123.904C101.345 118.897 103.354 113.229 103.993 107.337C104.861 101.468 104.337 95.4804 102.464 89.8428ZM92.8953 93.0792C94.6739 93.3416 96.1678 95.0386 97.0749 97.5578C98.9424 102.806 98.2665 111.028 95.0652 115.699C91.8638 120.37 87.951 119.198 86.1724 113.95C84.3939 108.702 84.9808 100.497 88.1821 95.8083C88.6161 94.9419 89.295 94.217 90.1372 93.7205C90.9795 93.2241 91.9495 92.9771 92.9309 93.0092L92.8953 93.0792Z" fill="#552F82"/>
<path fill-rule="evenodd" clip-rule="evenodd" d="M101.264 91.3999C97.9678 82.4079 91.0398 81.5439 85.6318 89.4479C82.7203 94.0206 80.9127 99.2081 80.3518 104.6C79.5562 109.968 80.0274 115.447 81.7278 120.6C84.9278 129.576 91.9518 130.44 97.3598 122.552C100.258 117.973 102.064 112.788 102.64 107.4C103.42 102.032 102.949 96.556 101.264 91.3999ZM92.6558 94.3599C94.2558 94.5999 95.5998 96.1519 96.4158 98.4559C98.0958 103.256 97.4878 110.776 94.6078 115.048C91.7278 119.32 88.2078 118.248 86.6078 113.448C85.0078 108.648 85.5358 101.144 88.4158 96.8559C88.8062 96.0635 89.4169 95.4005 90.1746 94.9464C90.9323 94.4924 91.8049 94.2665 92.6878 94.2959L92.6558 94.3599Z" fill="white"/>
<path fill-rule="evenodd" clip-rule="evenodd" d="M94.2888 115.768C97.6968 110.68 98.4168 101.592 96.4328 95.9758C94.6248 90.8398 91.0088 89.6718 87.9368 94.2638C84.5128 99.3518 83.7928 108.44 85.7768 114.056C87.6008 119.192 91.2008 120.36 94.2888 115.768Z" fill="#552F82"/>
<path fill-rule="evenodd" clip-rule="evenodd" d="M156.031 141C150.431 146.584 108.479 146.072 106.239 141.112C116.239 169.176 153.311 157.432 156.031 141Z" fill="#552F82"/>
<path fill-rule="evenodd" clip-rule="evenodd" d="M114.799 150.6C115.183 152.664 131.615 161.672 145.023 151.16C145.023 151.16 136.047 145.56 114.799 150.6Z" fill="#C3A3CD"/>
<path fill-rule="evenodd" clip-rule="evenodd" d="M117.631 130.312C118.802 131.805 119.761 133.452 120.479 135.208C120.639 136.424 118.143 132.52 114.783 132.28C114.133 132.203 113.51 131.978 112.959 131.624C112.689 131.405 112.497 131.104 112.413 130.766C112.33 130.428 112.358 130.072 112.495 129.752C112.713 129.413 113.011 129.133 113.362 128.935C113.714 128.737 114.108 128.627 114.511 128.616C115.132 128.663 115.737 128.839 116.288 129.13C116.839 129.422 117.323 129.825 117.711 130.312H117.631Z" fill="#552F82"/>
<path fill-rule="evenodd" clip-rule="evenodd" d="M130.801 135.32C131.482 133.322 132.452 131.435 133.681 129.72C134.053 129.19 134.528 128.742 135.078 128.401C135.628 128.06 136.241 127.834 136.881 127.736C137.36 127.722 137.835 127.83 138.261 128.052C138.686 128.273 139.048 128.599 139.313 129C139.505 129.336 139.568 129.73 139.492 130.11C139.415 130.489 139.204 130.828 138.897 131.064C138.303 131.486 137.618 131.76 136.897 131.864C133.153 132.248 130.625 136.664 130.721 135.32H130.801Z" fill="#552F82"/>
<path fill-rule="evenodd" clip-rule="evenodd" d="M168.112 81.8957C165.312 82.3917 163.744 87.0477 164.624 92.2957C165.504 97.5437 168.496 101.4 171.296 100.904C174.096 100.408 175.6 95.7357 174.8 90.4877C174 85.2397 170.928 81.3997 168.112 81.8957Z" fill="white"/>
<path fill-rule="evenodd" clip-rule="evenodd" d="M93.2793 87.3837C95.5993 87.5917 97.1513 91.2877 96.7353 95.6397C96.3193 99.9917 94.1113 103.304 91.7913 103.096C89.4713 102.888 87.9353 99.1757 88.3353 94.8397C88.7353 90.5037 90.9593 87.1597 93.2793 87.3837Z" fill="white"/>
<path fill-rule="evenodd" clip-rule="evenodd" d="M255.28 60.6472L255.824 60.2952C270.528 59.9912 288.448 64.6792 308.816 79.8152C302.416 85.5432 262.912 117.415 214.72 91.4152C215.996 89.8857 216.978 88.1336 217.616 86.2472C218.128 83.9752 215.456 80.6152 212.896 78.0072C224.324 67.1679 239.316 60.8751 255.056 60.3112L255.28 60.6472ZM231.888 286.599C183.04 301.575 155.376 256.087 155.296 255.959C155.095 255.643 154.778 255.418 154.412 255.334C154.047 255.25 153.663 255.314 153.344 255.511C153.082 255.676 152.88 255.92 152.768 256.208C152.655 256.496 152.639 256.813 152.72 257.111C154.932 266.363 159.246 274.981 165.328 282.295C145.888 272.951 130.128 257.463 126.128 238.951C127.44 238.551 130.928 234.519 131.136 234.151C123.92 238.343 120.672 238.375 112.08 239.559L111.216 239.687V240.551C111.223 242.717 110.396 244.803 108.907 246.376C107.417 247.949 105.38 248.888 103.216 248.999C96.7203 246.375 76.2723 243.479 70.1123 242.599C72.3893 241.125 74.7687 239.815 77.2323 238.679L79.1843 237.751L77.2643 236.775C74.2702 235.465 71.2101 234.312 68.0963 233.319C73.7123 230.727 81.2003 232.119 81.2163 232.119L83.2963 232.487C80.8963 227.687 75.7443 224.855 71.3603 221.943C78.5763 221.335 89.3763 226.839 91.6643 228.055C92.0003 229.815 92.4003 232.247 93.5683 233.447C93.4243 229.671 93.1203 224.151 92.7683 220.791C96.4803 225.143 104.192 233.351 104.224 233.367C104.114 231.196 103.202 229.143 101.664 227.607C99.7603 213.799 109.152 200.935 111.76 197.671C112.688 199.575 113.712 201.527 114.688 203.399C116.96 207.783 119.008 211.719 119.104 213.191L113.376 224.391C113.246 224.637 113.218 224.925 113.299 225.192C113.38 225.459 113.563 225.683 113.808 225.815C113.955 225.89 114.116 225.928 114.28 225.928C114.444 225.928 114.606 225.89 114.752 225.815L121.808 222.615C122.208 226.263 122.624 229.911 123.024 233.559C123.024 234.519 124.624 234.471 125.024 233.927L129.824 224.231L136.224 233.687C136.688 234.359 138.192 233.799 138.16 233.079C138.16 229.383 138.16 225.703 138.048 222.007L145.488 222.839C145.631 222.846 145.774 222.824 145.908 222.775C146.043 222.726 146.166 222.651 146.272 222.555C146.378 222.458 146.463 222.342 146.523 222.212C146.584 222.082 146.618 221.942 146.624 221.799C146.632 221.652 146.609 221.505 146.557 221.367C146.505 221.229 146.424 221.104 146.32 220.999C146.32 220.999 136.944 212.471 134.288 204.423C131.632 196.375 132.688 176.855 132.688 176.791C129.872 181.591 130.96 201.063 132.288 205.095C134.272 211.079 139.648 217.223 142.704 220.391L135.92 219.639C135.92 222.951 135.92 226.279 136.032 229.591L129.504 219.991C127.904 223.191 126.304 226.391 124.704 229.703L123.552 219.479L116.544 222.535L121.056 213.719C121.04 213.571 121.08 213.423 121.168 213.303C121.296 211.431 119.024 207.063 116.496 202.215C113.968 197.367 110.944 191.559 110.352 188.215C109.344 182.599 114.24 167.239 115.552 163.271C128.098 166.425 141.124 167.19 153.952 165.527C166.917 163.986 179.546 160.35 191.344 154.759C193.504 158.439 201.968 174.279 199.344 192.455V192.983L199.712 193.351C199.712 193.351 221.536 215.431 212.752 232.439C212.864 228.693 212.634 224.944 212.064 221.239C211.917 220.281 211.621 219.353 211.184 218.487C210.56 217.399 209.728 216.999 208.672 217.575C207.95 218.073 207.393 218.775 207.072 219.591C203.408 226.823 202.576 242.231 202.56 242.279C202.448 243.335 204.16 244.919 204.688 242.407C204.688 242.407 205.504 227.383 208.976 220.551C209.121 220.26 209.281 219.977 209.456 219.703C209.715 220.325 209.903 220.975 210.016 221.639C210.656 225.917 210.833 230.251 210.544 234.567C210.432 235.623 210.784 236.167 211.6 236.167C212.416 236.167 213.408 235.095 214.8 233.367C218.32 228.999 225.456 220.135 232.56 222.599C229.536 225.447 221.808 233.111 222.048 236.999V238.935L223.648 237.975C223.648 237.975 231.968 232.631 240.256 234.103C236.88 236.375 229.968 240.775 227.104 240.823C225.6 241.479 225.888 242.759 226.976 242.951C230.216 243.207 233.396 243.968 236.4 245.207C232.544 245.719 218.8 248.231 216.528 250.951C216.528 250.951 208.72 260.471 203.056 255.255C202.704 254.823 199.968 251.303 200.208 249.415L200.112 248.823C196.32 240.919 182 230.167 178.048 236.023C180.363 235.794 182.7 236.073 184.896 236.839C185.331 243.219 187.34 249.392 190.744 254.806C194.147 260.22 198.839 264.706 204.4 267.863C210.008 271.03 216.299 272.793 222.736 272.999C229.358 273.222 235.93 271.769 241.84 268.775C251.44 263.895 259.904 254.695 264.688 240.519C261.92 261.207 252.528 274.855 239.856 282.807C238.96 283.367 231.856 286.519 231.856 286.519L231.888 286.599ZM168.912 286.167C173.991 291.288 179.871 295.547 186.32 298.775C193.771 302.482 201.812 304.859 210.08 305.799C218.337 306.819 226.71 306.347 234.8 304.407C243.548 302.352 251.731 298.383 258.761 292.786C265.791 287.189 271.493 280.103 275.456 272.039C286.8 248.791 284.848 224.631 278.976 210.999C277.534 207.221 275.189 203.853 272.144 201.191C269.328 199.031 266.352 198.615 263.568 200.391C260.224 202.535 257.344 208.103 255.76 217.991C255.04 222.583 250.272 235.159 242.416 245.927C238 251.975 232.64 257.415 226.416 260.455C223.301 262.062 219.854 262.921 216.349 262.962C212.844 263.004 209.377 262.228 206.224 260.695C200.784 258.199 195.024 253.543 188.912 246.039C188 243.367 187.378 240.604 187.056 237.799C193.568 241.175 197.312 248.071 198 249.431C198 252.343 201.36 256.567 201.376 256.583C208.304 263.607 217.216 254.199 218.192 251.943C222.48 249.639 255.584 246.407 231.344 241.543C235.457 239.479 239.41 237.11 243.168 234.455C243.283 234.381 243.382 234.284 243.459 234.172C243.536 234.059 243.591 233.932 243.619 233.798C243.647 233.664 243.649 233.526 243.624 233.392C243.598 233.258 243.547 233.13 243.472 233.015C243.342 232.803 243.136 232.649 242.896 232.583C235.696 230.167 228.112 233.095 224.48 234.903C226.736 230.375 234.896 223.111 234.912 223.079C235.018 222.999 235.106 222.899 235.172 222.785C235.238 222.67 235.28 222.543 235.297 222.412C235.313 222.281 235.303 222.148 235.267 222.021C235.232 221.893 235.171 221.775 235.088 221.671C234.993 221.54 234.867 221.436 234.72 221.367C227.648 217.383 220.88 222.967 216.288 228.023C219.584 212.167 203.968 194.839 201.376 192.087C203.872 173.703 195.504 157.735 193.136 153.687C197.1 151.706 200.918 149.444 204.56 146.919C212.69 141.549 219.478 134.384 224.4 125.975C229.894 130.829 236.198 134.68 243.024 137.351C255.12 142.263 271.6 145.671 294 145.399H295.6C295.408 144.919 295.216 144.439 295.04 143.959C295.04 143.863 283.104 113.703 266.912 102.359C283.368 99.1777 298.665 91.6287 311.2 80.5032L312.112 79.6392L311.12 78.8872C291.248 63.8312 273.584 58.5192 258.816 58.0872C280.48 41.2232 284.528 8.64718 284.544 8.48718C284.58 8.04181 284.639 7.59857 284.72 7.15918L283.392 7.30318C227.216 12.9992 209.2 40.8072 206 46.5992C189.565 36.2401 170.331 31.2109 150.928 32.1992C122.528 33.5752 100.24 46.9832 93.9683 52.0712C78.5763 32.1992 45.7763 24.6472 17.0723 25.7992C19.4083 45.5272 31.4723 59.0632 47.9683 67.2712C23.8403 66.3272 12.5603 74.1832 12.5283 74.2152L11.6003 74.8392L12.2723 75.7352C25.6963 93.3352 39.2963 100.423 50.1443 102.823C32.9603 111.383 26.2403 123.799 26.1443 123.831C25.9683 124.151 25.7923 124.471 25.6003 124.791L26.5923 125.287C49.8723 136.967 68.8803 129.191 73.6483 126.887C75.0719 131.336 77.142 135.552 79.7923 139.399C85.2802 147.203 92.627 153.516 101.168 157.767C105.136 159.78 109.281 161.419 113.552 162.663C112.16 166.855 107.152 182.519 108.288 188.551C108.834 190.894 109.651 193.165 110.72 195.319C109.84 196.327 98.7203 209.607 99.2803 224.759C96.6243 221.815 93.5523 218.359 92.1923 216.535C91.3603 215.671 90.3843 216.295 90.2883 217.255C90.2883 217.255 90.5923 221.207 91.1843 225.255C86.6563 222.999 75.0723 217.831 68.2403 220.247C68.2403 220.247 66.6403 221.271 68.0323 222.135C68.0323 222.135 75.0883 226.647 78.5763 229.511C75.0403 229.287 69.0883 229.511 64.8643 232.519C63.6323 233.383 65.1683 234.391 65.1683 234.391C65.1683 234.391 70.7523 236.215 74.2243 237.591C71.6963 238.887 67.6483 241.159 66.9283 242.711C66.9283 242.711 65.9843 243.911 67.7443 244.199C67.7443 244.199 94.6883 247.607 101.968 250.679C103.262 250.866 104.579 250.795 105.845 250.468C107.11 250.142 108.298 249.568 109.34 248.779C110.382 247.99 111.257 247.003 111.914 245.873C112.571 244.744 112.997 243.495 113.168 242.199C113.185 241.938 113.185 241.676 113.168 241.415C115.136 241.127 120.224 240.343 124.032 239.415C128.64 259.975 146.864 276.855 168.832 286.135L168.912 286.167ZM193.648 255.303C196.738 259.704 200.765 263.366 205.44 266.023C210.824 269.072 216.877 270.744 223.062 270.892C229.247 271.04 235.373 269.659 240.896 266.871C252.4 260.999 262.224 248.535 265.536 228.135C265.776 226.663 267.568 225.959 267.632 228.311C267.392 256.807 256.592 274.823 240.976 284.615C238.422 286.485 235.649 288.038 232.72 289.239C194.32 300.999 168.4 276.999 158 264.343C161.082 272.132 165.79 279.174 171.808 284.999C176.469 289.51 181.788 293.287 187.584 296.199C194.741 299.786 202.467 302.103 210.416 303.047C218.328 304.005 226.347 303.545 234.096 301.687C242.449 299.735 250.264 295.954 256.979 290.617C263.694 285.28 269.141 278.52 272.928 270.823C283.856 248.423 282.032 225.207 276.4 212.151C275.15 208.797 273.108 205.795 270.448 203.399C269.752 202.721 268.852 202.289 267.887 202.171C266.922 202.052 265.944 202.253 265.104 202.743C262.4 204.471 260 209.399 258.576 218.455C257.808 223.255 252.848 236.487 244.72 247.623C240.064 254.023 234.368 259.767 227.76 263.015C224.274 264.82 220.415 265.785 216.49 265.835C212.565 265.885 208.683 265.018 205.152 263.303C200.913 261.272 197.029 258.57 193.648 255.303ZM164.4 189.495C162.704 196.727 160.998 203.949 159.28 211.159L149.68 217.175C148.976 217.655 149.68 219.079 150.064 219.127L158.064 220.455C157.568 222.855 156.864 228.455 160.064 231.943C161.344 233.335 161.824 231.639 161.952 231.399L164.752 226.407C165.497 227.957 166.547 229.342 167.84 230.477C169.132 231.612 170.639 232.475 172.272 233.015C173.872 233.575 173.68 232.007 173.68 232.007C173.68 230.103 173.68 228.215 173.792 226.311C176.365 228.022 179.457 228.775 182.528 228.439C184.896 228.167 183.104 226.583 183.104 226.583C183.104 226.583 175.248 219.639 175.424 216.903C176.45 214.679 177.728 212.58 179.232 210.647C184.832 202.359 194.144 188.551 193.312 177.175C191.408 188.711 182.112 202.775 177.472 209.463C175.104 212.983 173.376 215.527 173.296 216.759C173.12 219.383 177.2 223.831 179.696 226.359C177.382 226.042 175.218 225.032 173.488 223.463L171.728 221.735C171.728 224.647 171.616 227.559 171.552 230.471C167.28 228.391 165.312 222.039 164.928 221.975C163.824 223.943 161.728 227.303 160.704 229.271C158.688 225.495 160.352 219.943 160.352 219.927L160.688 218.775L153.2 217.527L160.88 212.727C161.024 212.503 161.184 212.279 161.344 212.071L166.624 189.671V189.207L163.552 175.095C162.368 179.047 164.176 184.695 164.496 189.495H164.4ZM73.2003 124.839C69.4243 126.775 51.3443 134.775 28.7523 123.943C30.7683 120.743 38.3523 110.455 53.8243 103.511C59.4963 104.371 65.2857 104.027 70.8163 102.503C70.3979 110.05 71.2029 117.614 73.2003 124.903V124.839ZM70.9603 100.231C66.6883 101.687 40.7043 108.759 14.7843 75.4152C17.9843 73.5912 30.7169 67.9878 51.8369 69.3638L50.6883 68.7752C58.6857 72.9341 67.1734 76.0733 75.9523 78.1192C73.9062 83.3552 72.4467 88.8017 71.6003 94.3592C71.2963 96.3112 71.0723 98.2792 70.9123 100.231H70.9603ZM76.8003 76.1352C25.7123 63.8472 20.5283 34.8872 19.3443 28.1352C68.9443 26.5352 88.7843 48.5032 92.5443 53.3992C85.7459 59.759 80.379 67.4931 76.8003 76.0872V76.1352ZM263.6 102.871C248.944 104.919 231.744 103.143 213.312 93.1112C212.08 94.6152 210.864 95.9432 210.112 96.7592C212.272 98.7112 217.616 104.055 216.048 107.959C216.016 108.155 216.016 108.355 216.048 108.551C216.048 110.615 217.648 114.951 221.76 120.103C225.872 125.255 232.96 130.999 243.984 135.495C255.392 140.151 271.056 143.495 292.352 143.351C289.664 136.951 278.176 111.351 263.664 102.935L263.6 102.871ZM211.376 76.5352C223.25 65.2527 238.847 58.7124 255.216 58.1512C275.504 44.2792 281.2 16.1032 282.24 9.65518C221.904 16.1992 207.504 48.4712 207.456 48.5512L206.944 49.6552L206 48.9992C189.722 38.4575 170.537 33.3126 151.168 34.2952C121.824 35.7192 99.2483 50.1352 94.6563 54.3592C82.8003 64.8552 76.0483 79.7192 73.7283 94.5992C71.2163 110.855 74.0323 127.191 81.6323 138.119C86.9329 145.594 94.0019 151.641 102.208 155.719C117.12 163.319 135.648 165.319 153.856 163.223C172.064 161.127 189.904 154.695 203.456 145.223C211.484 139.913 218.15 132.788 222.912 124.423C221.909 123.406 220.958 122.338 220.064 121.223C215.6 115.895 214 110.903 214 108.503C213.986 108.029 214.062 107.557 214.224 107.111C215.584 103.783 208.08 97.6712 208.064 97.6552L207.152 96.9192L207.968 96.0872C207.968 96.0872 214.816 89.0312 215.6 85.7832C216.256 82.8872 207.344 75.7672 207.312 75.7512L206.704 75.2552L206.992 74.5192C206.992 74.5192 209.504 68.3592 208.928 66.1832C208.352 64.0072 199.776 61.2872 199.76 61.2872C205.264 58.7592 210.816 64.9992 210.96 65.6552C211.552 67.9592 209.904 72.7592 209.216 74.5832C209.728 75.0152 210.512 75.6872 211.408 76.5352H211.376Z" fill="#552F82"/>
<path fill-rule="evenodd" clip-rule="evenodd" d="M49.8717 180.248C47.5186 180.245 45.2175 180.939 43.2588 182.243C41.3002 183.547 39.7719 185.402 38.8671 187.574C37.9622 189.747 37.7214 192.138 38.1751 194.447C38.6287 196.756 39.7564 198.879 41.4158 200.547C43.0752 202.215 45.1917 203.354 47.4981 203.82C49.8045 204.286 52.1973 204.058 54.3743 203.165C56.5512 202.272 58.4146 200.754 59.7291 198.802C61.0436 196.85 61.7502 194.553 61.7597 192.2C61.766 190.634 61.4633 189.082 60.8689 187.634C60.2745 186.185 59.4 184.868 58.2957 183.757C57.1914 182.647 55.8789 181.766 54.4333 181.163C52.9878 180.561 51.4376 180.25 49.8717 180.248Z" fill="#8BD4F3"/>
<path fill-rule="evenodd" clip-rule="evenodd" d="M52.6554 184.199C52.187 184.199 51.7292 184.338 51.3398 184.598C50.9504 184.858 50.6468 185.228 50.4676 185.661C50.2884 186.094 50.2415 186.57 50.3329 187.029C50.4242 187.489 50.6498 187.91 50.9809 188.242C51.3121 188.573 51.7341 188.798 52.1934 188.89C52.6527 188.981 53.1289 188.934 53.5616 188.755C53.9943 188.576 54.3641 188.272 54.6243 187.883C54.8845 187.493 55.0234 187.036 55.0234 186.567C55.0255 186.257 54.9662 185.949 54.849 185.662C54.7317 185.375 54.5588 185.114 54.3402 184.894C54.1216 184.674 53.8616 184.499 53.5752 184.38C53.2888 184.261 52.9816 184.199 52.6714 184.199H52.6554Z" fill="white"/>
<path fill-rule="evenodd" clip-rule="evenodd" d="M54.9446 191.465C54.7112 191.465 54.4874 191.558 54.3224 191.723C54.1574 191.888 54.0647 192.111 54.0647 192.345C54.0804 192.459 54.1185 192.57 54.1769 192.669C54.2353 192.769 54.3127 192.857 54.4049 192.926C54.497 192.996 54.6019 193.047 54.7138 193.076C54.8256 193.106 54.9421 193.113 55.0566 193.097C55.2479 193.073 55.4258 192.987 55.562 192.85C55.6983 192.714 55.7851 192.536 55.8086 192.345C55.8086 192.114 55.7181 191.893 55.5565 191.728C55.395 191.564 55.1752 191.469 54.9446 191.465Z" fill="white"/>
<path fill-rule="evenodd" clip-rule="evenodd" d="M44.993 218.264C43.648 218.264 42.3333 218.662 41.2151 219.41C40.0968 220.157 39.2253 221.219 38.7106 222.461C38.1959 223.704 38.0612 225.071 38.3236 226.39C38.586 227.709 39.2336 228.921 40.1846 229.872C41.1356 230.823 42.3473 231.471 43.6663 231.733C44.9854 231.995 46.3527 231.861 47.5952 231.346C48.8377 230.831 49.8998 229.96 50.647 228.842C51.3942 227.723 51.793 226.409 51.793 225.064C51.793 223.26 51.0765 221.531 49.8013 220.255C48.526 218.98 46.7964 218.264 44.993 218.264Z" fill="#8BD4F3"/>
<path fill-rule="evenodd" clip-rule="evenodd" d="M46.0013 219.863C45.6539 219.867 45.3152 219.972 45.0279 220.168C44.7406 220.363 44.5175 220.639 44.3867 220.961C44.256 221.283 44.2234 221.636 44.2931 221.976C44.3628 222.317 44.5317 222.629 44.7784 222.873C45.0252 223.118 45.3388 223.284 45.6798 223.351C46.0208 223.417 46.3738 223.381 46.6945 223.248C47.0152 223.114 47.2891 222.889 47.4818 222.599C47.6745 222.31 47.7773 221.971 47.7773 221.623C47.7774 221.391 47.7313 221.161 47.6418 220.946C47.5524 220.732 47.4213 220.537 47.2562 220.373C47.0911 220.21 46.8952 220.08 46.6798 219.993C46.4644 219.905 46.2338 219.861 46.0013 219.863Z" fill="white"/>
<path fill-rule="evenodd" clip-rule="evenodd" d="M47.6975 225.24C47.5235 225.24 47.3567 225.309 47.2336 225.432C47.1106 225.555 47.0415 225.722 47.0415 225.896C47.0415 226.07 47.1106 226.237 47.2336 226.36C47.3567 226.483 47.5235 226.552 47.6975 226.552C47.8715 226.552 48.0384 226.483 48.1614 226.36C48.2844 226.237 48.3535 226.07 48.3535 225.896C48.3457 225.725 48.2741 225.562 48.1527 225.441C48.0313 225.32 47.869 225.248 47.6975 225.24Z" fill="white"/>
<path fill-rule="evenodd" clip-rule="evenodd" d="M242.096 145.8C239.742 145.8 237.44 146.498 235.482 147.806C233.525 149.114 231.999 150.973 231.098 153.148C230.197 155.324 229.961 157.717 230.421 160.026C230.88 162.335 232.014 164.456 233.679 166.121C235.343 167.786 237.464 168.92 239.774 169.379C242.083 169.838 244.476 169.603 246.651 168.702C248.827 167.801 250.686 166.275 251.994 164.317C253.302 162.36 254 160.058 254 157.704C254 154.547 252.746 151.519 250.513 149.286C248.281 147.054 245.253 145.8 242.096 145.8V145.8Z" fill="#8BD4F3"/>
<path fill-rule="evenodd" clip-rule="evenodd" d="M244.896 149.8C244.429 149.8 243.973 149.938 243.584 150.197C243.196 150.456 242.892 150.824 242.712 151.254C242.532 151.685 242.483 152.16 242.572 152.618C242.661 153.077 242.883 153.499 243.211 153.831C243.539 154.163 243.958 154.391 244.415 154.486C244.872 154.581 245.347 154.539 245.781 154.365C246.214 154.19 246.586 153.892 246.85 153.507C247.114 153.121 247.258 152.667 247.264 152.2C247.269 151.886 247.211 151.575 247.093 151.284C246.976 150.993 246.803 150.728 246.582 150.505C246.362 150.281 246.099 150.104 245.81 149.983C245.521 149.862 245.21 149.8 244.896 149.8Z" fill="white"/>
<path fill-rule="evenodd" clip-rule="evenodd" d="M247.168 157C246.994 157 246.824 157.052 246.679 157.148C246.534 157.245 246.421 157.382 246.355 157.543C246.288 157.704 246.271 157.881 246.305 158.052C246.339 158.222 246.422 158.379 246.545 158.502C246.669 158.625 246.825 158.709 246.996 158.743C247.167 158.777 247.344 158.76 247.504 158.693C247.665 158.626 247.803 158.514 247.899 158.369C247.996 158.224 248.048 158.054 248.048 157.88C248.05 157.767 248.03 157.654 247.988 157.548C247.947 157.442 247.885 157.346 247.806 157.264C247.727 157.183 247.633 157.117 247.529 157.072C247.425 157.026 247.313 157.002 247.2 157H247.168Z" fill="white"/>
<path fill-rule="evenodd" clip-rule="evenodd" d="M226.352 188.648C225.462 188.648 224.593 188.912 223.854 189.406C223.114 189.9 222.538 190.602 222.198 191.424C221.858 192.245 221.769 193.149 221.942 194.022C222.116 194.894 222.544 195.695 223.173 196.324C223.801 196.952 224.602 197.381 225.475 197.554C226.347 197.728 227.251 197.638 228.072 197.298C228.894 196.958 229.596 196.382 230.09 195.642C230.584 194.903 230.848 194.034 230.848 193.144C230.848 191.956 230.376 190.817 229.535 189.977C228.695 189.136 227.556 188.664 226.368 188.664L226.352 188.648Z" fill="#8BD4F3"/>
<path fill-rule="evenodd" clip-rule="evenodd" d="M227.136 190.44C226.92 190.44 226.71 190.503 226.531 190.623C226.352 190.742 226.213 190.912 226.13 191.111C226.048 191.31 226.026 191.529 226.068 191.74C226.11 191.951 226.214 192.145 226.366 192.297C226.518 192.449 226.712 192.553 226.923 192.595C227.134 192.637 227.353 192.615 227.552 192.533C227.751 192.45 227.921 192.311 228.04 192.132C228.16 191.953 228.224 191.743 228.224 191.528C228.226 191.384 228.199 191.242 228.145 191.109C228.091 190.976 228.011 190.855 227.91 190.753C227.808 190.652 227.687 190.572 227.554 190.518C227.421 190.464 227.279 190.437 227.136 190.44Z" fill="white"/>
<path fill-rule="evenodd" clip-rule="evenodd" d="M228.175 193.801C228.096 193.801 228.019 193.824 227.953 193.868C227.887 193.912 227.836 193.975 227.806 194.048C227.775 194.121 227.767 194.201 227.783 194.279C227.798 194.356 227.836 194.428 227.892 194.484C227.948 194.54 228.02 194.578 228.097 194.593C228.175 194.609 228.255 194.601 228.328 194.57C228.401 194.54 228.464 194.489 228.508 194.423C228.552 194.357 228.575 194.28 228.575 194.201C228.575 194.095 228.533 193.993 228.458 193.918C228.383 193.843 228.281 193.801 228.175 193.801Z" fill="white"/>
<path fill-rule="evenodd" clip-rule="evenodd" d="M239.296 176.2C237.948 176.197 236.629 176.594 235.506 177.34C234.384 178.086 233.507 179.149 232.989 180.393C232.47 181.637 232.332 183.007 232.592 184.33C232.851 185.653 233.498 186.869 234.449 187.825C235.4 188.78 236.613 189.432 237.934 189.698C239.256 189.964 240.627 189.832 241.873 189.319C243.12 188.807 244.187 187.935 244.938 186.816C245.69 185.697 246.093 184.38 246.096 183.032C246.098 182.137 245.924 181.25 245.583 180.423C245.242 179.595 244.742 178.842 244.111 178.208C243.479 177.573 242.729 177.07 241.903 176.725C241.077 176.381 240.191 176.202 239.296 176.2Z" fill="#8BD4F3"/>
<path fill-rule="evenodd" clip-rule="evenodd" d="M240.287 177.801C239.936 177.801 239.593 177.905 239.301 178.1C239.009 178.295 238.781 178.573 238.647 178.897C238.512 179.222 238.477 179.579 238.546 179.923C238.614 180.268 238.783 180.584 239.032 180.833C239.28 181.081 239.596 181.25 239.941 181.319C240.286 181.387 240.643 181.352 240.967 181.218C241.292 181.083 241.569 180.856 241.764 180.563C241.959 180.271 242.063 179.928 242.063 179.577C242.063 179.106 241.876 178.654 241.543 178.321C241.21 177.988 240.759 177.801 240.287 177.801Z" fill="white"/>
<path fill-rule="evenodd" clip-rule="evenodd" d="M242 183.191C241.826 183.191 241.659 183.261 241.536 183.384C241.413 183.507 241.344 183.673 241.344 183.847C241.33 183.932 241.333 184.019 241.353 184.103C241.373 184.187 241.409 184.266 241.46 184.336C241.51 184.406 241.574 184.465 241.647 184.51C241.721 184.555 241.802 184.586 241.888 184.599C242.059 184.623 242.233 184.579 242.373 184.478C242.513 184.377 242.608 184.225 242.64 184.055C242.655 183.987 242.655 183.916 242.64 183.847C242.642 183.763 242.627 183.68 242.597 183.601C242.567 183.523 242.521 183.451 242.463 183.39C242.406 183.329 242.336 183.28 242.259 183.246C242.182 183.212 242.1 183.193 242.016 183.191H242Z" fill="white"/>
<path fill-rule="evenodd" clip-rule="evenodd" d="M90.0322 265.047C91.3265 265.047 92.5917 265.431 93.6678 266.15C94.744 266.869 95.5827 267.891 96.078 269.087C96.5733 270.282 96.7029 271.598 96.4504 272.868C96.1979 274.137 95.5747 275.303 94.6595 276.218C93.7443 277.133 92.5783 277.757 91.3088 278.009C90.0394 278.262 88.7237 278.132 87.5279 277.637C86.3321 277.141 85.3101 276.303 84.591 275.227C83.872 274.15 83.4882 272.885 83.4882 271.591C83.4882 269.855 84.1776 268.191 85.4049 266.964C86.6321 265.736 88.2966 265.047 90.0322 265.047Z" fill="#8BD4F3"/>
<path fill-rule="evenodd" clip-rule="evenodd" d="M88.497 267.256C88.7533 267.256 89.0039 267.332 89.217 267.474C89.4301 267.617 89.5962 267.819 89.6943 268.056C89.7924 268.293 89.8181 268.553 89.7681 268.805C89.7181 269.056 89.5946 269.287 89.4134 269.468C89.2321 269.65 89.0012 269.773 88.7498 269.823C88.4984 269.873 88.2378 269.847 88.001 269.749C87.7642 269.651 87.5618 269.485 87.4194 269.272C87.277 269.059 87.201 268.808 87.201 268.552C87.201 268.208 87.3375 267.879 87.5806 267.635C87.8236 267.392 88.1532 267.256 88.497 267.256Z" fill="white"/>
<path fill-rule="evenodd" clip-rule="evenodd" d="M87.2482 271.207C87.373 271.215 87.4908 271.268 87.5792 271.356C87.6676 271.444 87.7206 271.562 87.7282 271.687C87.7305 271.751 87.7196 271.814 87.6962 271.873C87.6729 271.933 87.6376 271.986 87.5926 272.031C87.5476 272.076 87.4938 272.112 87.4345 272.135C87.3753 272.158 87.3119 272.169 87.2482 272.167C87.1873 272.169 87.1265 272.159 87.0694 272.138C87.0123 272.117 86.9599 272.084 86.9153 272.043C86.8708 272.001 86.8348 271.951 86.8096 271.895C86.7843 271.84 86.7703 271.78 86.7682 271.719C86.766 271.655 86.7769 271.592 86.8002 271.533C86.8235 271.473 86.8588 271.42 86.9038 271.375C86.9489 271.33 87.0027 271.294 87.0619 271.271C87.1212 271.248 87.1846 271.237 87.2482 271.239V271.207Z" fill="white"/>
<path fill-rule="evenodd" clip-rule="evenodd" d="M97.4559 277.287C97.9433 277.287 98.4196 277.432 98.8248 277.702C99.2301 277.973 99.5459 278.358 99.7324 278.808C99.9188 279.258 99.9677 279.754 99.8726 280.232C99.7775 280.71 99.5428 281.149 99.1982 281.493C98.8536 281.838 98.4146 282.073 97.9366 282.168C97.4587 282.263 96.9632 282.214 96.513 282.028C96.0628 281.841 95.6779 281.525 95.4072 281.12C95.1364 280.715 94.9919 280.238 94.9919 279.751C94.9919 279.098 95.2515 278.471 95.7136 278.009C96.1757 277.547 96.8024 277.287 97.4559 277.287Z" fill="#8BD4F3"/>
<path fill-rule="evenodd" clip-rule="evenodd" d="M97.024 278.263C97.1826 278.239 97.3442 278.277 97.4753 278.37C97.6064 278.462 97.6969 278.601 97.728 278.759C97.7512 278.92 97.7106 279.083 97.615 279.215C97.5194 279.346 97.3762 279.435 97.216 279.463H97.024C96.8817 279.439 96.7523 279.366 96.6589 279.256C96.5656 279.146 96.5143 279.007 96.5143 278.863C96.5143 278.718 96.5656 278.579 96.6589 278.469C96.7523 278.359 96.8817 278.286 97.024 278.263Z" fill="white"/>
<path fill-rule="evenodd" clip-rule="evenodd" d="M96.4479 280.088C96.4922 280.088 96.5355 280.101 96.5723 280.126C96.6092 280.15 96.6379 280.185 96.6548 280.226C96.6718 280.267 96.6762 280.312 96.6676 280.356C96.6589 280.399 96.6376 280.439 96.6063 280.47C96.5749 280.502 96.535 280.523 96.4916 280.532C96.4481 280.54 96.4031 280.536 96.3622 280.519C96.3212 280.502 96.2862 280.473 96.2616 280.436C96.237 280.4 96.2239 280.356 96.2239 280.312C96.2239 280.252 96.2475 280.196 96.2895 280.154C96.3315 280.111 96.3885 280.088 96.4479 280.088Z" fill="white"/>
<path fill-rule="evenodd" clip-rule="evenodd" d="M92.7033 285.928C93.4438 285.928 94.1676 286.147 94.7833 286.559C95.399 286.97 95.8789 287.555 96.1623 288.239C96.4456 288.923 96.5198 289.676 96.3753 290.402C96.2309 291.128 95.8743 291.796 95.3507 292.319C94.8271 292.843 94.16 293.199 93.4337 293.344C92.7074 293.488 91.9546 293.414 91.2705 293.131C90.5864 292.847 90.0016 292.367 89.5902 291.752C89.1788 291.136 88.9593 290.412 88.9593 289.672C88.9593 288.679 89.3537 287.726 90.0559 287.024C90.758 286.322 91.7103 285.928 92.7033 285.928Z" fill="#8BD4F3"/>
<path fill-rule="evenodd" clip-rule="evenodd" d="M92.1591 286.807C92.4137 286.807 92.6579 286.908 92.838 287.088C93.018 287.268 93.1191 287.512 93.1191 287.767C93.1191 287.96 93.0619 288.149 92.9547 288.309C92.8474 288.47 92.695 288.595 92.5166 288.669C92.3383 288.743 92.1421 288.762 91.9527 288.724C91.7634 288.687 91.5895 288.594 91.453 288.457C91.3165 288.321 91.2236 288.147 91.1859 287.957C91.1482 287.768 91.1676 287.572 91.2414 287.394C91.3153 287.215 91.4404 287.063 91.6009 286.955C91.7614 286.848 91.9501 286.791 92.1431 286.791L92.1591 286.807Z" fill="white"/>
<path fill-rule="evenodd" clip-rule="evenodd" d="M91.2146 289.799C91.262 289.788 91.3114 289.786 91.3595 289.794C91.4076 289.803 91.4534 289.821 91.494 289.848C91.5346 289.875 91.5692 289.911 91.5955 289.952C91.6217 289.993 91.6392 290.039 91.6466 290.087C91.666 290.18 91.6484 290.278 91.5977 290.358C91.547 290.439 91.467 290.496 91.3746 290.519H91.2146C91.1213 290.519 91.0317 290.482 90.9657 290.416C90.8997 290.35 90.8626 290.261 90.8626 290.167C90.8605 290.121 90.8675 290.075 90.8832 290.031C90.8989 289.988 90.9231 289.948 90.9543 289.914C90.9855 289.879 91.0232 289.852 91.0651 289.832C91.107 289.812 91.1524 289.801 91.1986 289.799H91.2146Z" fill="white"/>
</g>
<defs>
<linearGradient id="paint0_linear_8967_79728" x1="162.017" y1="303.885" x2="162.017" y2="6.02695" gradientUnits="userSpaceOnUse">
<stop stop-color="#7BD5F5"/>
<stop offset="1" stop-color="#DCCFE5"/>
</linearGradient>
<linearGradient id="paint1_linear_8967_79728" x1="162.017" y1="303.885" x2="162.017" y2="6.02695" gradientUnits="userSpaceOnUse">
<stop stop-color="#7BD5F5"/>
<stop offset="1" stop-color="#DCCFE5"/>
</linearGradient>
<linearGradient id="paint2_linear_8967_79728" x1="162.017" y1="303.885" x2="162.017" y2="6.02695" gradientUnits="userSpaceOnUse">
<stop stop-color="#7BD5F5"/>
<stop offset="1" stop-color="#DCCFE5"/>
</linearGradient>
<linearGradient id="paint3_linear_8967_79728" x1="162.017" y1="303.885" x2="162.017" y2="6.02695" gradientUnits="userSpaceOnUse">
<stop stop-color="#7BD5F5"/>
<stop offset="1" stop-color="#DCCFE5"/>
</linearGradient>
<linearGradient id="paint4_linear_8967_79728" x1="162.017" y1="303.885" x2="162.017" y2="6.02695" gradientUnits="userSpaceOnUse">
<stop stop-color="#7BD5F5"/>
<stop offset="1" stop-color="#DCCFE5"/>
</linearGradient>
<linearGradient id="paint5_linear_8967_79728" x1="162.017" y1="303.885" x2="162.017" y2="6.02695" gradientUnits="userSpaceOnUse">
<stop stop-color="#7BD5F5"/>
<stop offset="1" stop-color="#DCCFE5"/>
</linearGradient>
<linearGradient id="paint6_linear_8967_79728" x1="162.017" y1="303.885" x2="162.017" y2="6.02695" gradientUnits="userSpaceOnUse">
<stop stop-color="#7BD5F5"/>
<stop offset="1" stop-color="#DCCFE5"/>
</linearGradient>
<linearGradient id="paint7_linear_8967_79728" x1="162.017" y1="303.885" x2="162.017" y2="6.02695" gradientUnits="userSpaceOnUse">
<stop stop-color="#7BD5F5"/>
<stop offset="1" stop-color="#DCCFE5"/>
</linearGradient>
<linearGradient id="paint8_linear_8967_79728" x1="162.017" y1="303.885" x2="162.017" y2="6.02695" gradientUnits="userSpaceOnUse">
<stop stop-color="#7BD5F5"/>
<stop offset="1" stop-color="#DCCFE5"/>
</linearGradient>
<clipPath id="clip0_8967_79728">
<rect width="320" height="320" fill="white" transform="matrix(-1 0 0 1 320 0)"/>
</clipPath>
</defs>
</svg>
