<svg width="156" height="64" viewBox="0 0 156 64" fill="none" xmlns="http://www.w3.org/2000/svg">
<path fill-rule="evenodd" clip-rule="evenodd" d="M12.5961 12.7667L12.4877 12.6967C9.55978 12.6362 5.99143 13.5689 1.93562 16.5802C3.21003 17.7199 11.0763 24.0609 20.6727 18.8881C20.4187 18.5838 20.2232 18.2352 20.096 17.8599C19.994 17.4079 20.5261 16.7394 21.0359 16.2205C18.7604 14.064 15.775 12.812 12.6407 12.6998L12.5961 12.7667ZM17.254 57.7209C26.934 60.686 32.4363 51.7375 32.5049 51.6259L32.5056 51.6249C32.5456 51.5619 32.6088 51.5172 32.6816 51.5005C32.7544 51.4838 32.8308 51.4965 32.8943 51.5358C32.9464 51.5685 32.9867 51.6171 33.0091 51.6744C33.0315 51.7317 33.0348 51.7947 33.0185 51.8541C32.5782 53.6948 31.7191 55.4094 30.5079 56.8646C34.3789 55.0055 37.5172 51.9241 38.3137 48.2411C38.0524 48.1615 37.3579 47.3593 37.3165 47.2861C38.7534 48.1201 39.4001 48.1265 41.111 48.362L41.2831 48.3875V48.5594C41.2817 48.9904 41.4464 49.4053 41.743 49.7183C42.0396 50.0312 42.4453 50.2181 42.8761 50.2402C44.1516 49.7254 48.1282 49.158 49.4149 48.9744C49.4332 48.9718 49.4509 48.9693 49.468 48.9669C49.0146 48.6735 48.5408 48.4129 48.0502 48.187L47.6615 48.0023L48.0438 47.8081C48.64 47.5475 49.2494 47.318 49.8694 47.1206C48.7511 46.6049 47.2601 46.8818 47.2569 46.8818L46.8427 46.955C47.3206 46 48.3465 45.4366 49.2195 44.8573C47.7826 44.7363 45.632 45.8313 45.1764 46.0733C45.1095 46.4234 45.0298 46.9073 44.7973 47.146C44.8259 46.3948 44.8865 45.2965 44.9566 44.6281C44.2174 45.4939 42.6817 47.1269 42.6754 47.1301C42.6972 46.6982 42.8789 46.2898 43.1851 45.9841C43.5643 43.237 41.6941 40.6776 41.1747 40.0282C40.99 40.407 40.7861 40.7954 40.5917 41.1678C40.5863 41.1783 40.5808 41.1888 40.5754 41.1992C40.1296 42.0588 39.7312 42.8267 39.7124 43.116L40.853 45.3443C40.879 45.3933 40.8845 45.4506 40.8684 45.5037C40.8523 45.5567 40.8158 45.6013 40.7669 45.6276C40.7378 45.6424 40.7056 45.6501 40.6729 45.6501C40.6403 45.6501 40.6081 45.6424 40.579 45.6276L39.1739 44.9909C39.0943 45.7167 39.0114 46.4425 38.9318 47.1683C38.9318 47.3593 38.6132 47.3498 38.5335 47.2415L37.5777 45.3125L36.3033 47.1938C36.2109 47.3275 35.9114 47.2161 35.9178 47.0728C35.9178 46.3375 35.9178 45.6053 35.9401 44.87L34.4586 45.0355C34.4301 45.0368 34.4017 45.0325 34.3749 45.0227C34.3482 45.013 34.3236 44.9981 34.3025 44.9789C34.2815 44.9597 34.2645 44.9365 34.2525 44.9108C34.2404 44.885 34.2336 44.857 34.2324 44.8286C34.2308 44.7993 34.2354 44.77 34.2458 44.7426C34.2562 44.7152 34.2723 44.6903 34.2929 44.6694C34.2929 44.6694 36.1599 42.9728 36.6888 41.3716C37.2177 39.7704 37.0074 35.8868 37.0074 35.8741C37.5682 36.829 37.3515 40.7031 37.0871 41.5053C36.692 42.6958 35.6215 43.9182 35.013 44.5485L36.3638 44.3989C36.3638 45.0578 36.3638 45.7199 36.3415 46.3789L37.6414 44.4689C37.96 45.1055 38.2786 45.7422 38.5972 46.4011L38.8266 44.367L40.2221 44.975L39.3237 43.2211C39.3269 43.1916 39.3189 43.1621 39.3014 43.1383C39.2759 42.7658 39.7283 41.8968 40.2317 40.9323C40.7351 39.9677 41.3372 38.8122 41.4551 38.1469C41.6558 37.0296 40.6809 33.9736 40.4197 33.1842C37.9216 33.8116 35.3276 33.9639 32.7732 33.633C30.1915 33.3265 27.6769 32.6029 25.3274 31.4907C24.8973 32.2228 23.2119 35.3743 23.7344 38.9905V39.0955L23.6611 39.1687C23.6611 39.1687 19.3154 43.5617 21.0645 46.9455C21.0423 46.2001 21.0881 45.4542 21.2015 44.7172C21.2308 44.5266 21.2899 44.3418 21.3768 44.1697C21.501 43.9532 21.6667 43.8736 21.877 43.9882C22.0208 44.0872 22.1318 44.2269 22.1956 44.3893C22.9252 45.8282 23.0908 48.8936 23.094 48.9032C23.1163 49.1133 22.7754 49.4284 22.6703 48.9287C22.6703 48.9287 22.5078 45.9396 21.8164 44.5803C21.7877 44.5224 21.7558 44.466 21.7209 44.4116C21.6693 44.5354 21.6319 44.6646 21.6093 44.7968C21.482 45.6479 21.4467 46.5102 21.5042 47.3689C21.5265 47.5789 21.4564 47.6872 21.2939 47.6872C21.1314 47.6872 20.9339 47.4739 20.6567 47.1301C20.6562 47.1294 20.6556 47.1287 20.6551 47.1281C19.9536 46.2583 18.5337 44.4979 17.1202 44.9878C17.7224 45.5544 19.2612 47.0792 19.2135 47.8527V48.2379L18.8948 48.0469C18.8948 48.0469 17.2381 46.9837 15.5878 47.2765C16.26 47.7286 17.6364 48.604 18.2067 48.6135C18.5062 48.744 18.4488 48.9987 18.2322 49.0369C17.587 49.0878 16.9538 49.2392 16.3556 49.4857C17.1234 49.5876 19.8602 50.0874 20.3126 50.6285C20.3126 50.6285 21.8674 52.5226 22.9953 51.4848C23.0654 51.3989 23.6102 50.6986 23.5624 50.3229L23.5815 50.2052C24.3366 48.6326 27.1881 46.4935 27.975 47.6585C27.5141 47.613 27.0487 47.6684 26.6114 47.8209C26.5248 49.0902 26.1247 50.3183 25.447 51.3954C24.7693 52.4725 23.835 53.3651 22.7276 53.9932C21.611 54.6234 20.3582 54.974 19.0765 55.0151C17.7578 55.0595 16.4493 54.7704 15.2723 54.1747C13.3607 53.2038 11.6753 51.3734 10.7227 48.553C11.2739 52.669 13.1441 55.3843 15.6674 56.9664C15.8458 57.0778 17.2604 57.7049 17.2604 57.7049L17.254 57.7209ZM29.7943 57.6349C28.7829 58.6537 27.6121 59.501 26.3279 60.1433C24.8442 60.8809 23.2431 61.3538 21.5966 61.5408C19.9524 61.7436 18.2852 61.6498 16.6742 61.2638C14.9323 60.8549 13.3029 60.0652 11.903 58.9517C10.5032 57.8382 9.36777 56.4285 8.57849 54.8241C6.31959 50.1988 6.70829 45.392 7.87756 42.6799C8.16468 41.9282 8.67308 41.3293 9.2793 40.7997C9.84004 40.3699 10.3249 40.4463 10.8793 40.7997C11.5452 41.2262 12.0039 42.196 12.3193 44.1633C12.4627 45.0769 13.4436 47.6173 15.0079 49.7597C15.8872 50.963 16.9928 52.1949 18.2322 52.7997C18.8525 53.1194 19.6625 53.2714 20.3604 53.2797C21.0584 53.288 22.0331 53.2613 22.5205 52.7997C23.6038 52.3031 24.8622 51.2526 26.0793 49.7597C26.261 49.228 26.1173 48.57 26.1813 48.0119C24.8846 48.6835 24.1391 50.0555 24.0021 50.3261C24.0021 50.9055 23.333 51.7459 23.3298 51.749C21.9503 53.1465 20.1756 51.2747 19.9813 50.8259C19.1274 50.3675 12.6125 49.9274 17.4393 48.9597C16.6203 48.549 15.7564 47.8747 15.0079 47.3466C14.9851 47.3317 14.9654 47.3126 14.95 47.2901C14.9346 47.2677 14.9556 47.258 14.95 47.2314C14.945 47.2581 14.9444 47.2048 14.95 47.2314C14.955 47.2047 14.993 47.1906 15.0079 47.1678C15.0338 47.1256 15.4715 47.0527 15.5193 47.0397C16.9593 46.8797 18.1561 47.32 18.8793 47.6797C18.4301 46.7788 16.6933 45.1261 16.6901 45.1197C16.7033 45.1425 16.6692 45.1038 16.6901 45.1197C16.677 45.0969 16.6426 45.0507 16.6393 45.0246C16.636 44.9985 16.6322 44.985 16.6393 44.9597C16.6229 44.9803 16.6464 44.9344 16.6393 44.9597C16.6582 44.9337 16.7702 44.8134 16.7993 44.7997C18.3993 44.4116 19.5649 45.3938 20.4793 46.3997C19.823 43.2451 22.8432 39.5872 23.3593 39.0397C22.8623 35.3821 24.6478 32.1651 25.1193 31.3597C24.33 30.9654 23.4211 30.4332 22.6958 29.9309C21.0769 28.8625 19.7252 27.4369 18.7451 25.764C17.6512 26.7297 16.3959 27.4958 15.0366 28.0273C12.6279 29.0046 9.34632 29.6826 4.88588 29.6285H4.56728C4.60551 29.533 4.64374 29.4375 4.67879 29.342C4.67879 29.3229 7.05557 23.3224 10.2798 21.0655C7.00307 20.4325 3.95702 18.9306 1.4609 16.7171L1.2793 16.5452L1.47683 16.3956C5.43388 13.4002 8.95125 12.3433 11.892 12.2574C7.57808 8.90219 6.77201 2.42104 6.76882 2.38921C6.76164 2.3006 6.74994 2.21242 6.73378 2.125L6.99822 2.15365C18.1844 3.28689 21.7718 8.81942 22.409 9.97177C25.6818 7.91079 29.5118 6.91019 33.3754 7.10682C39.0306 7.38058 43.4687 10.0482 44.7176 11.0604C47.7826 7.10682 54.3139 5.60432 60.0297 5.83351C59.5645 9.75849 57.1622 12.4515 53.8774 14.0846C58.682 13.8967 60.9281 15.4597 60.9345 15.4661L61.1193 15.5902L60.9855 15.7685C58.3124 19.2701 55.4394 20.6422 53.2793 21.1197C56.7011 22.8227 58.2393 25.3597 58.2393 25.3597C58.0793 25.4744 58.2743 25.4234 58.2393 25.3597L58.134 25.6271C53.2793 27.725 49.8056 26.3105 48.8561 25.8521C48.5727 26.7373 48.0682 27.6694 47.5404 28.4347C46.4477 29.9874 44.9847 31.2434 43.2839 32.0891C42.4939 32.4895 41.6684 32.8156 40.8179 33.0632C41.0951 33.8972 42.0923 37.0137 41.8661 38.2138C41.7574 38.6798 41.5949 39.1317 41.3818 39.5603C41.5571 39.7608 43.8372 42.6356 43.7257 45.6501C44.2546 45.0644 44.9056 44.3626 45.1764 43.9997C45.3421 43.8278 45.4202 43.8087 45.4393 43.9997C45.4393 43.9997 45.3972 44.9543 45.2793 45.7597C46.1809 45.3108 48.5217 44.2104 49.8822 44.6911C49.8822 44.6911 50.1594 44.7236 49.8822 44.8955C49.8822 44.8955 48.3561 45.9899 47.6615 46.5597C48.3656 46.5151 49.7182 46.5221 50.5593 47.1206C50.8046 47.2925 50.3993 47.3597 50.3993 47.3597C50.3993 47.3597 49.3307 47.8859 48.6393 48.1597C49.1427 48.4175 49.9359 48.8109 50.0793 49.1197C50.0793 49.1197 50.29 49.2279 49.9395 49.2852C49.9395 49.2852 44.5742 49.9632 43.1246 50.5744C42.8671 50.6116 42.6047 50.5974 42.3527 50.5325C42.1007 50.4676 41.8641 50.3534 41.6567 50.1964C41.4492 50.0395 41.275 49.8429 41.1441 49.6182C41.0133 49.3935 40.9933 49.2174 40.9593 48.9597C40.9593 48.9597 41.1193 48.7997 40.9593 48.7997C40.5674 48.7424 39.4893 48.518 38.7311 48.3334C37.8135 52.4239 34.1846 55.7822 29.8102 57.6285L29.7943 57.6349ZM24.8687 51.4944C24.2534 52.37 23.4514 53.0984 22.5205 53.6272C21.4485 54.2337 20.2432 54.5665 19.0116 54.5959C17.78 54.6254 16.5601 54.3505 15.4603 53.7959C13.1696 52.6276 11.2133 50.1479 10.5538 46.0892C10.506 45.7963 10.1492 45.6563 10.1365 46.1242C10.1842 51.7936 12.3348 55.378 15.4444 57.3261C15.9531 57.6981 16.5051 58.0071 17.0884 58.2461C24.7348 60.5858 29.8962 55.8109 31.9671 53.2929C31.3534 54.8425 30.4161 56.2435 29.2176 57.4025C28.2895 58.3001 27.2303 59.0514 26.0762 59.6308C24.651 60.3444 23.1127 60.8053 21.5297 60.9933C19.9543 61.1839 18.3575 61.0922 16.8144 60.7227C15.1512 60.3343 13.5949 59.5821 12.2578 58.5203C10.9206 57.4584 9.83594 56.1134 9.08188 54.5822C6.90582 50.1256 7.26903 45.5066 8.39051 42.9091C8.63947 42.2418 9.04606 41.6444 9.57572 41.1678C9.71443 41.0329 9.89359 40.947 10.0858 40.9235C10.278 40.8999 10.4726 40.9399 10.6398 41.0373C11.1783 41.3811 11.6562 42.3616 11.9397 44.1633C12.0927 45.1183 13.0803 47.7508 14.6988 49.9664C15.626 51.2397 16.7602 52.3825 18.076 53.0287C18.7702 53.3877 19.5386 53.5798 20.3202 53.5897C21.1017 53.5997 21.8748 53.4272 22.5779 53.086C23.4221 52.6818 24.1956 52.1444 24.8687 51.4944ZM30.6927 38.4016C31.0304 39.8404 31.3703 41.2771 31.7122 42.7117L33.6239 43.9086C33.764 44.0041 33.6239 44.2874 33.5474 44.297L31.9544 44.5612C32.0531 45.0387 32.1933 46.1528 31.5561 46.8468C31.3012 47.1237 31.2057 46.7863 31.1802 46.7386L30.6226 45.7454C30.4742 46.0538 30.2652 46.3292 30.0079 46.5551C29.7506 46.7809 29.4504 46.9527 29.1252 47.0601C28.8066 47.1715 28.8448 46.8595 28.8448 46.8595C28.8448 46.4807 28.8448 46.1051 28.8225 45.7263C28.3102 46.0667 27.6945 46.2166 27.0829 46.1497C26.6114 46.0955 26.9682 45.7804 26.9682 45.7804C26.9682 45.7804 28.5326 44.3989 28.4975 43.8545C28.2933 43.412 28.0389 42.9944 27.7393 42.6099C26.6242 40.9609 24.7699 38.2138 24.9356 35.9505C25.3147 38.2456 27.1658 41.0437 28.0897 42.3743C28.0998 42.3892 28.1098 42.4041 28.1197 42.4188C28.5758 43.0961 28.9057 43.586 28.9213 43.8259C28.9563 44.3479 28.1439 45.2329 27.6469 45.7358C28.1076 45.6727 28.5385 45.4718 28.883 45.1597L29.2335 44.8159C29.2335 45.3952 29.2558 45.9746 29.2686 46.5539C30.1192 46.1401 30.5111 44.8764 30.5876 44.8636C30.8074 45.2552 31.2248 45.9236 31.4287 46.3152C31.8301 45.5639 31.4988 44.4593 31.4988 44.4562L31.4319 44.227L32.9229 43.9787L31.3936 43.0237C31.365 42.9791 31.3331 42.9346 31.3012 42.8932L30.2499 38.4366V38.3443L30.8616 35.5366C31.0973 36.3229 30.7373 37.4466 30.6736 38.4016H30.6927ZM48.8531 25.538C48.8541 25.5385 48.8551 25.539 48.8561 25.5395C49.6147 25.9274 53.2113 27.5119 57.7039 25.3597C57.3024 24.7231 55.7923 22.6762 52.7114 21.2947C51.5819 21.4657 50.4291 21.3973 49.3278 21.0941C49.4109 22.5917 49.2516 24.0928 48.8561 25.5395C48.8551 25.5433 48.8541 25.547 48.8531 25.5507V25.538ZM49.2991 20.6421C50.1498 20.9318 55.3239 22.3388 60.4853 15.7048C59.8481 15.3419 57.5414 14.2692 53.3358 14.5429V14.3838C51.7433 15.2112 50.0532 15.8358 48.3051 16.2428C48.7125 17.2845 49.0032 18.3682 49.1717 19.4738C49.2322 19.8622 49.2768 20.2537 49.3087 20.6421H49.2991ZM48.1362 15.8481C58.3092 13.4033 59.3415 7.64161 59.5773 6.29827C49.7006 5.97994 45.7499 10.3506 45.0012 11.3247C46.3549 12.59 47.4236 14.1287 48.1362 15.8385V15.8481ZM10.9393 21.1673C13.8577 21.5748 17.2827 21.2215 20.953 19.2255C21.1983 19.5248 21.4405 19.789 21.5902 19.9513C21.1601 20.3397 20.096 21.4029 20.4082 22.1796C20.4146 22.2186 20.4146 22.2584 20.4082 22.2974C20.4082 22.708 20.0896 23.5707 19.2708 24.5957C18.452 25.6207 17.0406 26.7635 14.8454 27.658C12.5738 28.5844 9.45465 29.2497 5.21404 29.221C5.7493 27.9477 8.03686 22.8545 10.9266 21.1801L10.9393 21.1673ZM21.3385 15.9277C21.3375 15.9267 21.3364 15.9257 21.3354 15.9247C18.9714 13.6818 15.867 12.3817 12.6088 12.2701C8.56893 9.51019 7.4347 3.90445 7.22761 2.62159C19.2421 3.92355 22.1096 10.3442 22.1191 10.3601L22.2211 10.5798L22.409 10.4493C25.6504 8.35194 29.4708 7.32833 33.3276 7.52383C39.1707 7.80714 43.6662 10.6753 44.5806 11.5157C46.9415 13.6039 48.286 16.5611 48.7479 19.5216C49.2481 22.7558 48.6874 26.0059 47.174 28.1801C46.1186 29.6673 44.7109 30.8703 43.0768 31.6817C40.1074 33.1937 36.418 33.5917 32.7923 33.1746C29.1666 32.7576 25.6142 31.478 22.9156 29.5935C21.317 28.537 19.9898 27.1193 19.0414 25.4552C19.2413 25.2529 19.4306 25.0404 19.6085 24.8186C20.4974 23.7585 20.816 22.7653 20.816 22.2879C20.8188 22.1935 20.8037 22.0996 20.7714 22.0109C20.5006 21.3488 21.9949 20.1328 21.998 20.1296L22.1796 19.9832L22.0172 19.8176C22.0172 19.8176 20.6535 18.4138 20.4974 17.7676C20.3668 17.1914 22.1414 15.7749 22.1478 15.7717L22.2689 15.673L22.2115 15.5266C22.2115 15.5266 21.7113 14.301 21.826 13.8681C21.9407 13.4352 23.6484 12.894 23.6516 12.894C22.5556 12.3911 21.45 13.6325 21.4214 13.763C21.3035 14.2214 21.6316 15.1764 21.7686 15.5393C21.6673 15.6247 21.5124 15.7574 21.3354 15.9247C21.3343 15.9257 21.3332 15.9267 21.3322 15.9277H21.3385Z" fill="url(#paint0_linear_9231_14060)"/>
<path d="M12.6088 12.2701C15.867 12.3817 18.9714 13.6818 21.3354 15.9247C21.5124 15.7574 21.6673 15.6247 21.7686 15.5393C21.6316 15.1764 21.3035 14.2214 21.4214 13.763C21.45 13.6325 22.5556 12.3911 23.6516 12.894C23.6484 12.894 21.9407 13.4352 21.826 13.8681C21.7113 14.301 22.2115 15.5266 22.2115 15.5266L22.2689 15.673L22.1478 15.7717C22.1414 15.7749 20.3668 17.1914 20.4974 17.7676C20.6535 18.4138 22.0172 19.8176 22.0172 19.8176L22.1796 19.9832L21.998 20.1296C21.9949 20.1328 20.5006 21.3488 20.7714 22.0109C20.8037 22.0996 20.8188 22.1935 20.816 22.2879C20.816 22.7653 20.4974 23.7585 19.6085 24.8186C19.4306 25.0404 19.2413 25.2529 19.0414 25.4552C19.9898 27.1193 21.317 28.537 22.9156 29.5935C25.6142 31.478 29.1666 32.7576 32.7923 33.1746C36.418 33.5917 40.1074 33.1937 43.0768 31.6817C44.7109 30.8703 46.1186 29.6673 47.174 28.1801C48.6874 26.0059 49.2481 22.7558 48.7479 19.5216C48.286 16.5611 46.9415 13.6039 44.5806 11.5157C43.6662 10.6753 39.1707 7.80714 33.3276 7.52383C29.4708 7.32833 25.6504 8.35194 22.409 10.4493L22.2211 10.5798L22.1191 10.3601C22.1096 10.3442 19.2421 3.92355 7.22761 2.62159C7.4347 3.90445 8.56893 9.51019 12.6088 12.2701Z" fill="url(#paint1_linear_9231_14060)"/>
<path d="M12.5961 12.7667L12.4877 12.6967C9.55978 12.6362 5.99143 13.5689 1.93562 16.5802C3.21003 17.7199 11.0763 24.0609 20.6727 18.8881C20.4187 18.5838 20.2232 18.2352 20.096 17.8599C19.994 17.4079 20.5261 16.7394 21.0359 16.2205C18.7604 14.064 15.775 12.812 12.6407 12.6998L12.5961 12.7667Z" fill="url(#paint2_linear_9231_14060)"/>
<path d="M10.9393 21.1673C13.8577 21.5748 17.2827 21.2215 20.953 19.2255C21.1983 19.5248 21.4405 19.789 21.5902 19.9513C21.1601 20.3397 20.096 21.4029 20.4082 22.1796C20.4146 22.2186 20.4146 22.2584 20.4082 22.2974C20.4082 22.708 20.0896 23.5707 19.2708 24.5957C18.452 25.6207 17.0406 26.7635 14.8454 27.658C12.5738 28.5844 9.45465 29.2497 5.21404 29.221C5.7493 27.9477 8.03686 22.8545 10.9266 21.1801L10.9393 21.1673Z" fill="url(#paint3_linear_9231_14060)"/>
<path d="M48.1362 15.8481C58.3092 13.4033 59.3415 7.64161 59.5773 6.29827C49.7006 5.97994 45.7499 10.3506 45.0012 11.3247C46.3549 12.59 47.4236 14.1287 48.1362 15.8385V15.8481Z" fill="url(#paint4_linear_9231_14060)"/>
<path d="M49.2991 20.6421C50.1498 20.9318 55.3239 22.3388 60.4853 15.7048C59.8481 15.3419 57.5414 14.2692 53.3358 14.5429V14.3838C51.7433 15.2112 50.0532 15.8358 48.3051 16.2428C48.7125 17.2845 49.0032 18.3682 49.1717 19.4738C49.2322 19.8622 49.2768 20.2537 49.3087 20.6421H49.2991Z" fill="url(#paint5_linear_9231_14060)"/>
<path d="M48.8561 25.5395C49.6147 25.9274 53.2113 27.5119 57.7039 25.3597C57.3024 24.7231 55.7923 22.6762 52.7114 21.2947C51.5819 21.4657 50.4291 21.3973 49.3278 21.0941C49.4109 22.5917 49.2516 24.0928 48.8561 25.5395Z" fill="url(#paint6_linear_9231_14060)"/>
<path fill-rule="evenodd" clip-rule="evenodd" d="M17.254 57.7209C26.934 60.686 32.4363 51.7375 32.5049 51.6259L32.5056 51.6249C32.5456 51.5619 32.6088 51.5172 32.6816 51.5005C32.7544 51.4838 32.8308 51.4965 32.8943 51.5358C32.9464 51.5685 32.9867 51.6171 33.0091 51.6744C33.0315 51.7317 33.0348 51.7947 33.0185 51.8541C32.5782 53.6948 31.7191 55.4094 30.5079 56.8646C34.3789 55.0055 37.5172 51.9241 38.3137 48.2411C38.0524 48.1615 37.3579 47.3593 37.3165 47.2861C38.7534 48.1201 39.4001 48.1265 41.111 48.362L41.2831 48.3875V48.5594C41.2817 48.9904 41.4464 49.4053 41.743 49.7183C42.0396 50.0312 42.4453 50.2181 42.8761 50.2402C44.1516 49.7254 48.1282 49.158 49.4149 48.9744L49.468 48.9669C49.0146 48.6735 48.5408 48.4129 48.0502 48.187L47.6615 48.0023L48.0438 47.8081C48.64 47.5475 49.2494 47.318 49.8694 47.1206C48.7511 46.6049 47.2601 46.8818 47.2569 46.8818L46.8427 46.955C47.3206 46 48.3465 45.4366 49.2195 44.8573C47.7826 44.7363 45.632 45.8313 45.1764 46.0733C45.1095 46.4234 45.0298 46.9073 44.7973 47.146C44.8259 46.3948 44.8865 45.2965 44.9566 44.6281C44.2174 45.4939 42.6817 47.1269 42.6754 47.1301C42.6972 46.6982 42.8789 46.2898 43.1851 45.9841C43.5643 43.237 41.6941 40.6776 41.1747 40.0282C40.99 40.407 40.7861 40.7954 40.5917 41.1678L40.5754 41.1992C40.1296 42.0588 39.7312 42.8267 39.7124 43.116L40.853 45.3443C40.879 45.3933 40.8845 45.4506 40.8684 45.5037C40.8523 45.5567 40.8158 45.6013 40.7669 45.6276C40.7378 45.6424 40.7056 45.6501 40.6729 45.6501C40.6403 45.6501 40.6081 45.6424 40.579 45.6276L39.1739 44.9909C39.0943 45.7167 39.0114 46.4425 38.9318 47.1683C38.9318 47.3593 38.6132 47.3498 38.5335 47.2415L37.5777 45.3125L36.3033 47.1938C36.2109 47.3275 35.9114 47.2161 35.9178 47.0728C35.9178 46.3375 35.9178 45.6053 35.9401 44.87L34.4586 45.0355C34.4301 45.0368 34.4017 45.0325 34.3749 45.0227C34.3482 45.013 34.3236 44.9981 34.3025 44.9789C34.2815 44.9597 34.2645 44.9365 34.2525 44.9108C34.2404 44.885 34.2336 44.857 34.2324 44.8286C34.2308 44.7993 34.2354 44.77 34.2458 44.7426C34.2562 44.7152 34.2723 44.6903 34.2929 44.6694C34.2929 44.6694 36.1599 42.9728 36.6888 41.3716C37.2177 39.7704 37.0074 35.8868 37.0074 35.8741C37.5682 36.829 37.3515 40.7031 37.0871 41.5053C36.692 42.6958 35.6215 43.9182 35.013 44.5485L36.3638 44.3989C36.3638 45.0578 36.3638 45.7199 36.3415 46.3789L37.6414 44.4689C37.96 45.1055 38.2786 45.7422 38.5972 46.4011L38.8266 44.367L40.2221 44.975L39.3237 43.2211C39.3269 43.1916 39.3189 43.1621 39.3014 43.1383C39.2759 42.7658 39.7283 41.8968 40.2317 40.9323C40.7351 39.9677 41.3372 38.8122 41.4551 38.1469C41.6558 37.0296 40.6809 33.9736 40.4197 33.1842C37.9216 33.8116 35.3276 33.9639 32.7732 33.633C30.1915 33.3265 27.6769 32.6029 25.3274 31.4907C24.8973 32.2228 23.2119 35.3743 23.7344 38.9905V39.0955L23.6611 39.1687C23.6611 39.1687 19.3154 43.5617 21.0645 46.9455C21.0423 46.2001 21.0881 45.4542 21.2015 44.7172C21.2308 44.5266 21.2899 44.3418 21.3768 44.1697C21.501 43.9532 21.6667 43.8736 21.877 43.9882C22.0208 44.0872 22.1318 44.2269 22.1956 44.3893C22.9252 45.8282 23.0908 48.8936 23.094 48.9032C23.1163 49.1133 22.7754 49.4284 22.6703 48.9287C22.6703 48.9287 22.5078 45.9396 21.8164 44.5803C21.7877 44.5224 21.7558 44.466 21.7209 44.4116C21.6693 44.5354 21.6319 44.6646 21.6093 44.7968C21.482 45.6479 21.4467 46.5102 21.5042 47.3689C21.5265 47.5789 21.4564 47.6872 21.2939 47.6872C21.1314 47.6872 20.9339 47.4739 20.6567 47.1301L20.6551 47.1281C19.9536 46.2583 18.5337 44.4979 17.1202 44.9878C17.7224 45.5544 19.2612 47.0792 19.2135 47.8527V48.2379L18.8948 48.0469C18.8948 48.0469 17.2381 46.9837 15.5878 47.2765C16.26 47.7286 17.6364 48.604 18.2067 48.6135C18.5062 48.744 18.4488 48.9987 18.2322 49.0369C17.587 49.0878 16.9538 49.2392 16.3556 49.4857C17.1234 49.5876 19.8602 50.0874 20.3126 50.6285C20.3126 50.6285 21.8674 52.5226 22.9953 51.4848C23.0654 51.3989 23.6102 50.6986 23.5624 50.3229L23.5815 50.2052C24.3366 48.6326 27.1881 46.4935 27.975 47.6585C27.5141 47.613 27.0487 47.6684 26.6114 47.8209C26.5248 49.0902 26.1247 50.3183 25.447 51.3954C24.7693 52.4725 23.835 53.3651 22.7276 53.9932C21.611 54.6234 20.3582 54.974 19.0765 55.0151C17.7578 55.0595 16.4493 54.7704 15.2723 54.1747C13.3607 53.2038 11.6753 51.3734 10.7227 48.553C11.2739 52.669 13.1441 55.3843 15.6674 56.9664C15.8458 57.0778 17.2604 57.7049 17.2604 57.7049L17.254 57.7209ZM31.7122 42.7117C31.3703 41.2771 31.0304 39.8404 30.6927 38.4016H30.6736C30.7373 37.4466 31.0973 36.3229 30.8616 35.5366L30.2499 38.3443V38.4366L31.3012 42.8932C31.3331 42.9346 31.365 42.9791 31.3936 43.0237L32.9229 43.9787L31.4319 44.227L31.4988 44.4562C31.4988 44.4593 31.8301 45.5639 31.4287 46.3152C31.2248 45.9236 30.8074 45.2552 30.5876 44.8636C30.5111 44.8764 30.1192 46.1401 29.2686 46.5539C29.2558 45.9746 29.2335 45.3952 29.2335 44.8159L28.883 45.1597C28.5385 45.4718 28.1076 45.6727 27.6469 45.7358C28.1439 45.2329 28.9563 44.3479 28.9213 43.8259C28.9057 43.586 28.5758 43.0961 28.1197 42.4188L28.0897 42.3743C27.1658 41.0437 25.3147 38.2456 24.9356 35.9505C24.7699 38.2138 26.6242 40.9609 27.7393 42.6099C28.0389 42.9944 28.2933 43.412 28.4975 43.8545C28.5326 44.3989 26.9682 45.7804 26.9682 45.7804C26.9682 45.7804 26.6114 46.0955 27.0829 46.1497C27.6945 46.2166 28.3102 46.0667 28.8225 45.7263C28.8448 46.1051 28.8448 46.4807 28.8448 46.8595C28.8448 46.8595 28.8066 47.1715 29.1252 47.0601C29.4504 46.9527 29.7506 46.7809 30.0079 46.5551C30.2652 46.3292 30.4742 46.0538 30.6226 45.7454L31.1802 46.7386C31.2057 46.7863 31.3012 47.1237 31.5561 46.8468C32.1933 46.1528 32.0531 45.0387 31.9544 44.5612L33.5474 44.297C33.6239 44.2874 33.764 44.0041 33.6239 43.9086L31.7122 42.7117Z" fill="url(#paint7_linear_9231_14060)"/>
<path d="M24.8687 51.4944C24.2534 52.37 23.4514 53.0984 22.5205 53.6272C21.4485 54.2337 20.2432 54.5665 19.0116 54.5959C17.78 54.6254 16.5601 54.3505 15.4603 53.7959C13.1696 52.6276 11.2133 50.1479 10.5538 46.0892C10.506 45.7963 10.1492 45.6563 10.1365 46.1242C10.1842 51.7936 12.3348 55.378 15.4444 57.3261C15.9531 57.6981 16.5051 58.0071 17.0884 58.2461C24.7348 60.5858 29.8962 55.8109 31.9671 53.2929C31.3534 54.8425 30.4161 56.2435 29.2176 57.4025C28.2895 58.3001 27.2303 59.0514 26.0762 59.6308C24.651 60.3444 23.1127 60.8053 21.5297 60.9933C19.9543 61.1839 18.3575 61.0922 16.8144 60.7227C15.1512 60.3343 13.5949 59.5821 12.2578 58.5203C10.9206 57.4584 9.83594 56.1134 9.08188 54.5822C6.90582 50.1256 7.26903 45.5066 8.39051 42.9091C8.63947 42.2418 9.04606 41.6444 9.57572 41.1678C9.71443 41.0329 9.89359 40.947 10.0858 40.9235C10.278 40.8999 10.4726 40.9399 10.6398 41.0373C11.1783 41.3811 11.6562 42.3616 11.9397 44.1633C12.0927 45.1183 13.0803 47.7508 14.6988 49.9664C15.626 51.2397 16.7602 52.3825 18.076 53.0287C18.7702 53.3877 19.5386 53.5798 20.3202 53.5897C21.1017 53.5997 21.8748 53.4272 22.5779 53.086C23.4221 52.6818 24.1956 52.1444 24.8687 51.4944Z" fill="url(#paint8_linear_9231_14060)"/>
<path fill-rule="evenodd" clip-rule="evenodd" d="M11.8921 44.3041C11.6041 42.4929 11.1241 41.5074 10.5833 41.1618C10.4158 41.064 10.2209 41.024 10.0284 41.0477C9.83592 41.0714 9.65652 41.1575 9.51771 41.2929C8.98357 41.7663 8.57279 42.3627 8.32092 43.0305C7.19452 45.6417 6.82652 50.2817 9.01532 54.7649C11.4825 59.6641 16.4969 61.8049 21.5177 61.2097C24.4191 60.8839 27.1337 59.616 29.2457 57.6001C30.4463 56.4362 31.3855 55.0302 32.0009 53.4753C29.9241 56.0001 24.7593 60.8001 17.0633 58.4513C16.4776 58.2122 15.9231 57.9027 15.4121 57.5297C12.2857 55.5713 10.1257 51.9681 10.0777 46.2689L10.5001 46.2337C11.1625 50.3137 13.1209 52.8001 15.4281 53.9809C16.5468 54.5483 17.7904 54.8246 19.0441 54.7841C20.262 54.7491 21.4533 54.4198 22.5161 53.8241C23.4526 53.2935 24.2593 52.5612 24.8777 51.6801C24.2028 52.3364 23.4244 52.8769 22.5737 53.2801C21.868 53.6244 21.0916 53.7987 20.3065 53.7893C19.5213 53.7798 18.7493 53.5868 18.0521 53.2257C16.7337 52.5857 15.5945 51.4241 14.6633 50.1473C13.0377 47.9073 12.0457 45.2833 11.8921 44.3137V44.3041Z" fill="#777ABA"/>
<path fill-rule="evenodd" clip-rule="evenodd" d="M21.4883 14.64C21.4883 14.64 11.7475 4.25925 7.56834 2.73925C7.56834 2.73925 11.1843 3.23845 13.1491 3.77605C11.1993 3.15239 9.18933 2.73517 7.15234 2.53125C7.36354 3.81125 8.49634 9.45605 12.5571 12.2305C15.8311 12.3427 18.9504 13.6508 21.3251 15.9072C21.4628 15.7691 21.6081 15.6387 21.7603 15.5169C21.6524 15.2302 21.5616 14.9374 21.4883 14.64Z" fill="#777ABA"/>
<path fill-rule="evenodd" clip-rule="evenodd" d="M20.3941 16.9591C20.3941 16.9591 5.27095 15.8711 2.15415 16.5207C2.7887 15.9905 3.45211 15.4959 4.14135 15.0391C3.34741 15.5031 2.58032 16.0117 1.84375 16.5623C3.12375 17.7079 11.0213 24.0823 20.6629 18.8823C20.4069 18.5758 20.2104 18.2242 20.0837 17.8455C20.0681 17.5153 20.1831 17.1923 20.4037 16.9463L20.3941 16.9591Z" fill="#777ABA"/>
<path fill-rule="evenodd" clip-rule="evenodd" d="M16.0553 21.026C16.0553 21.026 9.35449 28.2996 5.46648 28.5044C5.32248 28.8244 5.21048 29.0804 5.14648 29.2628C9.40569 29.282 12.5385 28.6228 14.8169 27.6884C17.0121 26.7924 18.4105 25.6436 19.2649 24.61C20.1193 23.5764 20.3881 22.7188 20.3913 22.3028C20.3977 22.2636 20.3977 22.2237 20.3913 22.1844C20.0713 21.4164 21.1465 20.3476 21.5753 19.9444C21.4249 19.7812 21.1849 19.5156 20.9353 19.2148C19.4104 20.056 17.7674 20.6623 16.0617 21.0132L16.0553 21.026Z" fill="#777ABA"/>
<path fill-rule="evenodd" clip-rule="evenodd" d="M59.9367 6.24078C59.9367 6.24078 53.5367 6.08398 47.1367 13.7224C47.568 14.393 47.9406 15.0996 48.2503 15.8344C58.4711 13.3768 59.6871 7.57837 59.9239 6.23438L59.9367 6.24078Z" fill="#777ABA"/>
<path fill-rule="evenodd" clip-rule="evenodd" d="M59.6836 15.2544C59.6836 15.2544 53.6292 18.048 48.666 16.96C49.0604 18.1545 49.3086 19.3923 49.4052 20.6464C50.2628 20.9376 55.4596 22.352 60.6436 15.6832C60.335 15.5143 60.0141 15.3688 59.6836 15.248V15.2544Z" fill="#777ABA"/>
<path fill-rule="evenodd" clip-rule="evenodd" d="M57.8505 25.438C57.8505 25.438 53.8761 22.766 49.4537 21.918C49.4597 23.173 49.2939 24.423 48.9609 25.6332C49.7129 26.0172 53.3289 27.6204 57.8505 25.454V25.438Z" fill="#777ABA"/>
<path fill-rule="evenodd" clip-rule="evenodd" d="M38.0225 33.3219C22.2817 32.0803 20.7681 22.6627 20.7233 22.3555C20.7233 22.9667 20.2305 24.0163 19.4817 24.9155C19.3121 25.1203 19.1233 25.3283 18.9121 25.5555C19.8637 27.2291 21.1969 28.6544 22.8033 29.7155C25.7815 31.7043 29.1953 32.9458 32.7553 33.3347C34.5045 33.5491 36.2733 33.5491 38.0225 33.3347V33.3219Z" fill="#777ABA"/>
<path fill-rule="evenodd" clip-rule="evenodd" d="M23.68 36.5134C23.5839 37.3723 23.5968 38.24 23.7184 39.0958V39.2014L23.6448 39.275C23.6448 39.275 19.7248 43.2398 20.8 46.5486C20.4448 44.219 22.72 41.0766 24.2624 39.3614C24.0032 38.459 23.9424 35.3902 23.984 34.9102C23.8376 35.4338 23.737 35.9691 23.6832 36.5102L23.68 36.5134Z" fill="#777ABA"/>
<path fill-rule="evenodd" clip-rule="evenodd" d="M25.2793 37.2267C25.9545 39.2395 27.3817 41.3867 28.1593 42.5003C28.6329 43.2043 28.9753 43.7131 28.9913 43.9595C29.0265 44.4843 28.2137 45.3739 27.7113 45.8795C27.7113 45.8795 29.4617 45.0219 29.3113 43.6075C29.3113 43.6075 25.7241 37.7995 25.9129 36.7947C25.9129 36.7947 26.4601 35.0955 26.8025 34.8203C26.8025 34.8203 25.0905 35.7547 25.3017 37.2331L25.2793 37.2267Z" fill="#777ABA"/>
<path fill-rule="evenodd" clip-rule="evenodd" d="M37.0591 35.9492C37.6223 36.9092 37.4047 40.8004 37.1359 41.6068C36.7391 42.8068 35.6639 44.0356 35.0527 44.6692C36.2687 44.1572 37.5647 41.5716 37.5647 41.5716C37.8239 39.8916 38.0799 37.4116 37.0591 35.9492Z" fill="#777ABA"/>
<path fill-rule="evenodd" clip-rule="evenodd" d="M32.0381 18.05C31.3302 15.6876 29.4721 15.3063 27.8582 17.2232C26.9839 18.3403 26.396 19.6371 26.1416 21.0097C25.8269 22.376 25.8475 23.7932 26.2018 25.1506C26.9096 27.513 28.7678 27.8943 30.3817 25.9741C31.2555 24.8542 31.8433 23.5553 32.0983 22.1808C32.4129 20.8156 32.3923 19.3996 32.0381 18.0433V18.05ZM29.6597 18.6305C30.0915 18.7283 30.4171 19.1536 30.5941 19.7644C30.948 21.0165 30.6401 22.9536 29.7836 23.9964C28.927 25.0392 28.0139 24.6714 27.66 23.4328C27.306 22.1943 27.5927 20.247 28.4563 19.2042C28.8102 18.7587 29.2314 18.5292 29.6597 18.6305Z" fill="#552F82"/>
<path fill-rule="evenodd" clip-rule="evenodd" d="M31.7466 18.2532C31.1095 16.0258 29.4372 15.6662 27.9847 17.4736C27.1978 18.5269 26.6687 19.7496 26.4397 21.0438C26.1565 22.332 26.1751 23.6681 26.4939 24.948C27.131 27.1754 28.8033 27.535 30.2558 25.7244C31.0423 24.6685 31.5713 23.4439 31.8008 22.1479C32.0839 20.8608 32.0654 19.5256 31.7466 18.2468V18.2532ZM29.606 18.8005C29.9946 18.8928 30.2877 19.2937 30.447 19.8696C30.7655 21.0501 30.4884 22.8766 29.7175 23.8598C28.9466 24.843 28.1248 24.4962 27.8063 23.3284C27.4877 22.1606 27.7458 20.3246 28.523 19.3414C28.8415 18.9214 29.2206 18.705 29.606 18.8005Z" fill="white"/>
<path fill-rule="evenodd" clip-rule="evenodd" d="M29.7595 23.916C30.6683 22.7544 31.0011 20.5784 30.6203 19.1864C30.2715 17.9064 29.4203 17.5576 28.5979 18.604C27.6859 19.7656 27.3531 21.9416 27.7371 23.3336C28.0859 24.6136 28.9339 24.9592 29.7595 23.916Z" fill="#552F82"/>
<path fill-rule="evenodd" clip-rule="evenodd" d="M43.108 18.5695C43.8408 16.6032 45.381 16.4142 46.5833 18.1427C47.2306 19.1426 47.6324 20.277 47.7571 21.4561C47.934 22.6299 47.8292 23.8281 47.4512 24.9549C46.7398 26.9178 45.1782 27.1067 43.9759 25.3818C43.3317 24.3804 42.9301 23.2467 42.8021 22.0684C42.6286 20.8945 42.7333 19.6971 43.108 18.5695ZM45.0217 19.2168C44.666 19.2693 44.3672 19.6087 44.1858 20.1125C43.8123 21.1622 43.9475 22.8066 44.5878 23.7408C45.228 24.675 46.0106 24.4406 46.3663 23.391C46.722 22.3413 46.6046 20.7003 45.9644 19.7626C45.8776 19.5894 45.7418 19.4444 45.5733 19.3451C45.4049 19.2458 45.2109 19.1964 45.0146 19.2028L45.0217 19.2168Z" fill="#552F82"/>
<path fill-rule="evenodd" clip-rule="evenodd" d="M43.3465 18.8813C44.0057 17.0829 45.3913 16.9101 46.4729 18.4909C47.0552 19.4055 47.4167 20.443 47.5289 21.5213C47.688 22.5949 47.5937 23.6907 47.2537 24.7213C46.6137 26.5165 45.2089 26.6893 44.1273 25.1117C43.5477 24.1959 43.1864 23.1591 43.0713 22.0813C42.9152 21.0077 43.0094 19.9126 43.3465 18.8813ZM45.0681 19.4733C44.7481 19.5213 44.4793 19.8317 44.3161 20.2925C43.9801 21.2525 44.1017 22.7565 44.6777 23.6109C45.2537 24.4653 45.9577 24.2509 46.2777 23.2909C46.5977 22.3309 46.4921 20.8301 45.9161 19.9725C45.838 19.8141 45.7158 19.6815 45.5643 19.5907C45.4128 19.4998 45.2382 19.4547 45.0617 19.4605L45.0681 19.4733Z" fill="white"/>
<path fill-rule="evenodd" clip-rule="evenodd" d="M44.743 23.754C44.0614 22.7364 43.9174 20.9188 44.3142 19.7956C44.6758 18.7684 45.399 18.5348 46.0134 19.4532C46.6982 20.4708 46.8422 22.2884 46.4454 23.4116C46.0806 24.4388 45.3606 24.6724 44.743 23.754Z" fill="#552F82"/>
<path fill-rule="evenodd" clip-rule="evenodd" d="M32.3945 28.8008C33.5145 29.9176 41.9049 29.8152 42.3529 28.8232C40.3529 34.436 32.9385 32.0872 32.3945 28.8008Z" fill="#552F82"/>
<path fill-rule="evenodd" clip-rule="evenodd" d="M40.6405 30.7195C40.5637 31.1323 37.2773 32.9339 34.5957 30.8315C34.5957 30.8315 36.3909 29.7115 40.6405 30.7195Z" fill="#C3A3CD"/>
<path fill-rule="evenodd" clip-rule="evenodd" d="M40.073 26.6634C39.8388 26.9619 39.6471 27.2914 39.5034 27.6426C39.4714 27.8858 39.9706 27.105 40.6426 27.057C40.7726 27.0415 40.8973 26.9966 41.0074 26.9258C41.0615 26.882 41.0998 26.8217 41.1166 26.7542C41.1333 26.6866 41.1276 26.6154 41.1002 26.5514C41.0565 26.4836 40.997 26.4275 40.9267 26.3879C40.8565 26.3483 40.7776 26.3265 40.697 26.3242C40.5727 26.3337 40.4517 26.3687 40.3416 26.427C40.2315 26.4854 40.1346 26.5659 40.057 26.6634H40.073Z" fill="#552F82"/>
<path fill-rule="evenodd" clip-rule="evenodd" d="M37.4399 27.6635C37.3037 27.264 37.1096 26.8867 36.8639 26.5435C36.7895 26.4377 36.6944 26.3479 36.5844 26.2798C36.4744 26.2116 36.3518 26.1663 36.2239 26.1467C36.128 26.1439 36.033 26.1657 35.9479 26.21C35.8627 26.2542 35.7903 26.3194 35.7375 26.3995C35.6991 26.4667 35.6863 26.5456 35.7016 26.6215C35.7169 26.6974 35.7592 26.7652 35.8207 26.8123C35.9393 26.8968 36.0765 26.9517 36.2207 26.9723C36.9695 27.0491 37.4751 27.9323 37.4559 27.6635H37.4399Z" fill="#552F82"/>
<path fill-rule="evenodd" clip-rule="evenodd" d="M29.978 16.9793C30.538 17.0785 30.8516 18.0097 30.6756 19.0593C30.4996 20.1089 29.9012 20.8801 29.3412 20.7809C28.7812 20.6817 28.4804 19.7473 28.6404 18.6977C28.8004 17.6481 29.4148 16.8801 29.978 16.9793Z" fill="white"/>
<path fill-rule="evenodd" clip-rule="evenodd" d="M44.9449 18.0763C44.4809 18.1179 44.1705 18.8571 44.2537 19.7275C44.3369 20.5979 44.7785 21.2603 45.2425 21.2187C45.7065 21.1771 46.0137 20.4347 45.9337 19.5675C45.8537 18.7003 45.4089 18.0315 44.9449 18.0763Z" fill="white"/>
<path fill-rule="evenodd" clip-rule="evenodd" d="M12.5441 12.7288L12.4353 12.6585C9.49453 12.5977 5.91053 13.5352 1.83693 16.5624C3.11693 17.708 11.0177 24.0824 20.6561 18.8825C20.401 18.5765 20.2047 18.2261 20.0769 17.8488C19.9745 17.3945 20.5089 16.7225 21.0209 16.2009C18.7355 14.033 15.737 12.7744 12.5889 12.6616L12.5441 12.7288ZM17.2225 57.9192C26.9921 60.9144 32.5249 51.8168 32.5409 51.7912C32.5811 51.7279 32.6446 51.683 32.7177 51.6662C32.7908 51.6494 32.8676 51.6622 32.9313 51.7016C32.9837 51.7345 33.0242 51.7834 33.0467 51.841C33.0691 51.8986 33.0725 51.962 33.0561 52.0216C32.6139 53.8721 31.751 55.5956 30.5345 57.0584C34.4225 55.1896 37.5745 52.092 38.3745 48.3896C38.1121 48.3096 37.4145 47.5032 37.3729 47.4296C38.8161 48.268 39.4657 48.2744 41.1841 48.5112L41.3569 48.5368V48.7096C41.3555 49.1429 41.5209 49.56 41.8188 49.8746C42.1167 50.1892 42.5243 50.3771 42.9569 50.3992C44.2561 49.8744 48.3457 49.2952 49.5777 49.1192C49.1223 48.8243 48.6465 48.5623 48.1537 48.3352L47.7633 48.1496L48.1473 47.9544C48.7462 47.6925 49.3582 47.4618 49.9809 47.2632C48.8577 46.7448 47.3601 47.0232 47.3569 47.0232L46.9409 47.0968C47.4209 46.1368 48.4513 45.5704 49.3281 44.988C47.8849 44.8664 45.7249 45.9672 45.2673 46.2104C45.2001 46.5624 45.1201 47.0488 44.8865 47.2888C44.9153 46.5336 44.9761 45.4296 45.0465 44.7576C44.3041 45.628 42.7617 47.2696 42.7553 47.2728C42.7773 46.8387 42.9598 46.4281 43.2673 46.1208C43.6481 43.3592 41.7697 40.7864 41.2481 40.1336C41.0625 40.5145 40.8577 40.9049 40.6625 41.2793C40.2081 42.156 39.7985 42.9432 39.7793 43.2376L40.9249 45.4776C40.951 45.5269 40.9566 45.5845 40.9404 45.6379C40.9242 45.6912 40.8876 45.736 40.8385 45.7624C40.8093 45.7773 40.7769 45.7851 40.7441 45.7851C40.7113 45.7851 40.679 45.7773 40.6497 45.7624L39.2385 45.1224C39.1585 45.852 39.0753 46.5816 38.9953 47.3112C38.9953 47.5033 38.6753 47.4936 38.5953 47.3848L37.6353 45.4456L36.3553 47.3368C36.2625 47.4712 35.9617 47.3592 35.9681 47.2152C35.9681 46.476 35.9681 45.74 35.9905 45.0008L34.5025 45.1672C34.4739 45.1685 34.4454 45.1642 34.4185 45.1544C34.3916 45.1447 34.3669 45.1297 34.3458 45.1104C34.3247 45.091 34.3076 45.0678 34.2955 45.0418C34.2834 45.0159 34.2766 44.9878 34.2753 44.9592C34.2737 44.9298 34.2783 44.9004 34.2888 44.8728C34.2993 44.8453 34.3154 44.8202 34.3361 44.7992C34.3361 44.7992 36.2113 43.0937 36.7425 41.4841C37.2737 39.8745 37.0625 35.9705 37.0625 35.9576C37.6257 36.9177 37.4081 40.812 37.1425 41.6185C36.7457 42.8153 35.6705 44.044 35.0593 44.6776L36.4161 44.5272C36.4161 45.1896 36.4161 45.8552 36.3937 46.5176L37.6993 44.5976C38.0193 45.2376 38.3393 45.8776 38.6593 46.54L38.8897 44.4952L40.2913 45.1064L39.3889 43.3432C39.3922 43.3137 39.3842 43.284 39.3665 43.26C39.3409 42.8856 39.7953 42.012 40.3009 41.0424C40.8065 40.0728 41.4113 38.9113 41.5297 38.2425C41.7313 37.1193 40.7521 34.0472 40.4897 33.2536C37.9807 33.8843 35.3754 34.0374 32.8097 33.7049C30.2168 33.3967 27.6911 32.6693 25.3313 31.5512C24.8993 32.2872 23.2065 35.4552 23.7313 39.0905V39.196L23.6577 39.2696C23.6577 39.2696 19.2929 43.6856 21.0497 47.0872C21.0274 46.3379 21.0735 45.5882 21.1873 44.8472C21.2167 44.6557 21.2761 44.4699 21.3633 44.2968C21.4881 44.0792 21.6545 43.9992 21.8657 44.1144C22.0102 44.2139 22.1216 44.3544 22.1857 44.5176C22.9185 45.964 23.0849 49.0456 23.0881 49.0552C23.1105 49.2664 22.7681 49.5832 22.6625 49.0808C22.6625 49.0808 22.4993 46.076 21.8049 44.7096C21.7761 44.6514 21.744 44.5948 21.7089 44.54C21.6572 44.6645 21.6196 44.7944 21.5969 44.9272C21.469 45.7828 21.4336 46.6497 21.4913 47.5128C21.5137 47.724 21.4433 47.8328 21.2801 47.8328C21.1169 47.8328 20.9185 47.6184 20.6401 47.2728C19.9361 46.3992 18.5089 44.6264 17.0881 45.1192C17.6929 45.6888 19.2385 47.2216 19.1905 47.9992V48.3864L18.8705 48.1944C18.8705 48.1944 17.2065 47.1256 15.5489 47.42C16.2241 47.8744 17.6065 48.7544 18.1793 48.764C18.4801 48.8952 18.4225 49.1512 18.2049 49.1896C17.557 49.2408 16.921 49.3931 16.3201 49.6409C17.0913 49.7432 19.8401 50.2456 20.2945 50.7896C20.2945 50.7896 21.8561 52.6936 22.9889 51.6504C23.0593 51.564 23.6065 50.86 23.5585 50.4824L23.5777 50.364C24.3361 48.7832 27.2001 46.6328 27.9905 47.804C27.5276 47.7582 27.0602 47.8139 26.6209 47.9672C26.5339 49.2432 26.1321 50.4778 25.4514 51.5606C24.7707 52.6433 23.8323 53.5406 22.7201 54.172C21.5986 54.8055 20.3403 55.1579 19.0529 55.1992C17.7285 55.2439 16.4143 54.9533 15.2321 54.3544C13.3121 53.3784 11.6193 51.5384 10.6625 48.7032C11.2161 52.8408 13.0945 55.5704 15.6289 57.1608C15.8081 57.2729 17.2289 57.9032 17.2289 57.9032L17.2225 57.9192ZM29.8177 57.8328C28.802 58.857 27.626 59.7087 26.3361 60.3544C24.846 61.0959 23.2379 61.5713 21.5841 61.7592C19.9328 61.9632 18.2582 61.8689 16.6401 61.4808C14.8906 61.0697 13.254 60.2759 11.848 59.1566C10.4421 58.0372 9.30168 56.6201 8.50893 55.0072C6.24013 50.3576 6.63053 45.5257 7.80493 42.7992C8.09331 42.0436 8.56246 41.3701 9.17133 40.8377C9.73453 40.4057 10.3297 40.3224 10.8865 40.6777C11.5553 41.1064 12.1313 42.22 12.4481 44.1976C12.5921 45.116 13.5457 47.6312 15.1169 49.7848C16.0001 50.9944 17.0721 52.0824 18.3169 52.6904C18.94 53.0119 19.6294 53.1836 20.3305 53.1919C21.0315 53.2002 21.7248 53.045 22.3553 52.7384C23.4433 52.2392 24.5953 51.308 25.8177 49.8072C26.0002 49.2728 26.1246 48.7203 26.1889 48.1592C24.8865 48.8344 24.1377 50.2136 24.0001 50.4856C24.0001 51.068 23.3281 51.9128 23.3249 51.916C21.9393 53.3209 20.1569 51.4392 19.9617 50.988C19.1041 50.5272 12.4833 49.8808 17.3313 48.908C16.5088 48.4952 15.7183 48.0214 14.9665 47.4904C14.9436 47.4755 14.9239 47.4563 14.9084 47.4337C14.8929 47.4112 14.8821 47.3858 14.8764 47.3591C14.8708 47.3323 14.8705 47.3047 14.8755 47.2778C14.8805 47.251 14.8908 47.2253 14.9057 47.2024C14.9317 47.16 14.9729 47.1291 15.0209 47.116C16.4609 46.6329 17.9777 47.2184 18.7041 47.58C18.2529 46.6744 16.6209 45.2216 16.6177 45.2152C16.5967 45.1993 16.579 45.1792 16.5658 45.1563C16.5526 45.1334 16.5441 45.1081 16.5409 45.0819C16.5376 45.0556 16.5396 45.029 16.5467 45.0035C16.5539 44.9781 16.5661 44.9543 16.5825 44.9336C16.6016 44.9075 16.6269 44.8866 16.6561 44.8728C18.0705 44.076 19.4241 45.1928 20.3425 46.204C19.6833 43.0328 22.8065 39.5672 23.3249 39.0168C22.8257 35.34 24.4993 32.1465 24.9729 31.3368C24.1801 30.9405 23.4166 30.4882 22.6881 29.9832C21.0621 28.9093 19.7046 27.4762 18.7201 25.7945C17.6214 26.7652 16.3606 27.5353 14.9953 28.0697C12.5761 29.052 9.28013 29.7337 4.80013 29.6793H4.48013C4.51853 29.5833 4.55693 29.4872 4.59213 29.3912C4.59213 29.372 6.97933 23.34 10.2177 21.0712C6.9266 20.4349 3.8672 18.9251 1.36013 16.7L1.17773 16.5273L1.37613 16.3769C5.35053 13.3657 8.88333 12.3032 11.8369 12.2168C7.50413 8.84405 6.69453 2.32885 6.69133 2.29685C6.68412 2.20778 6.67237 2.11913 6.65613 2.03125L6.92173 2.06005C18.1569 3.19925 21.7601 8.76085 22.4001 9.91925C25.6872 7.84744 29.534 6.84159 33.4145 7.03925C39.0945 7.31445 43.5521 9.99605 44.8065 11.0136C47.8849 7.03925 54.4449 5.52885 60.1857 5.75925C59.7185 9.70485 57.3057 12.412 54.0065 14.0536C58.8321 13.8649 61.0881 15.436 61.0945 15.4424L61.2801 15.5673L61.1457 15.7464C58.4609 19.2664 55.7409 20.684 53.5713 21.164C57.0081 22.876 58.3521 25.3592 58.3713 25.3656C58.4065 25.4296 58.4417 25.4937 58.4801 25.5577L58.2817 25.6569C53.6257 27.9928 49.8241 26.4377 48.8705 25.9769C48.5858 26.8667 48.1718 27.7099 47.6417 28.4792C46.5442 30.0401 45.0748 31.3027 43.3665 32.1529C42.5731 32.5553 41.7439 32.8832 40.8897 33.132C41.1681 33.9704 42.1697 37.1032 41.9425 38.3097C41.8333 38.7781 41.6701 39.2324 41.4561 39.6632C41.6321 39.8648 43.8561 42.5208 43.7441 45.5513C44.2753 44.9624 44.8897 44.2712 45.1617 43.9064C45.3281 43.7337 45.5233 43.8584 45.5425 44.0504C45.5425 44.0504 45.4817 44.8408 45.3633 45.6504C46.2689 45.1992 48.5857 44.1656 49.9521 44.6488C49.9521 44.6488 50.2721 44.8536 49.9937 45.0265C49.9937 45.0265 48.5825 45.9288 47.8849 46.5016C48.5921 46.4568 49.7825 46.5016 50.6273 47.1032C50.8737 47.276 50.5665 47.4776 50.5665 47.4776C50.5665 47.4776 49.4497 47.8424 48.7553 48.1176C49.2609 48.3768 50.0705 48.8312 50.2145 49.1417C50.2145 49.1417 50.4033 49.3816 50.0513 49.4392C50.0513 49.4392 44.6625 50.1208 43.2065 50.7352C42.9479 50.7726 42.6843 50.7583 42.4313 50.6931C42.1782 50.6279 41.9405 50.513 41.7322 50.3553C41.5238 50.1975 41.3488 49.9999 41.2174 49.774C41.086 49.5481 41.0007 49.2984 40.9665 49.0392C40.9632 48.987 40.9632 48.9347 40.9665 48.8824C40.5729 48.8248 39.5553 48.668 38.7937 48.4824C37.8721 52.5944 34.2273 55.9704 29.8337 57.8265L29.8177 57.8328ZM24.8705 51.66C24.2526 52.5403 23.4471 53.2725 22.5121 53.804C21.4354 54.4138 20.2248 54.7483 18.9878 54.7779C17.7508 54.8075 16.5256 54.5312 15.4209 53.9736C13.1201 52.7992 11.1553 50.3064 10.4929 46.2264C10.4449 45.932 10.0865 45.7912 10.0737 46.2617C10.1217 51.9608 12.2817 55.564 15.4049 57.5224C15.9159 57.8964 16.4703 58.207 17.0561 58.4472C24.7361 60.7992 29.9201 55.9992 32.0001 53.468C31.3838 55.0258 30.4423 56.4342 29.2385 57.5992C28.3064 58.5015 27.2425 59.2568 26.0833 59.8392C24.6519 60.5565 23.1068 61.0199 21.5169 61.2088C19.9347 61.4005 18.3309 61.3083 16.7809 60.9368C15.1104 60.5464 13.5473 59.7903 12.2043 58.7229C10.8613 57.6554 9.7719 56.3033 9.01453 54.764C6.82893 50.284 7.19373 45.6408 8.32013 43.0296C8.57018 42.3588 8.97856 41.7583 9.51053 41.2793C9.64985 41.1436 9.8298 41.0573 10.0228 41.0336C10.2159 41.0099 10.4113 41.0501 10.5793 41.148C11.1201 41.4936 11.6001 42.4792 11.8849 44.2904C12.0385 45.2505 13.0305 47.8968 14.6561 50.124C15.5873 51.404 16.7265 52.5528 18.0481 53.2024C18.7453 53.5633 19.5171 53.7564 20.3021 53.7664C21.0871 53.7764 21.8636 53.603 22.5697 53.26C23.4176 52.8537 24.1945 52.3135 24.8705 51.66ZM30.7201 38.4984C31.0593 39.9448 31.4007 41.3891 31.7441 42.8313L33.6641 44.0344C33.8049 44.1304 33.6641 44.4152 33.5873 44.4248L31.9873 44.6904C32.0865 45.1704 32.2273 46.2904 31.5873 46.988C31.3313 47.2664 31.2353 46.9272 31.2097 46.8792L30.6497 45.8808C30.5007 46.1909 30.2907 46.4677 30.0323 46.6948C29.7739 46.9218 29.4724 47.0945 29.1457 47.2024C28.8257 47.3144 28.8641 47.0008 28.8641 47.0008C28.8641 46.62 28.8641 46.2425 28.8417 45.8616C28.3272 46.2039 27.7088 46.3545 27.0945 46.2872C26.6209 46.2328 26.9793 45.916 26.9793 45.916C26.9793 45.916 28.5505 44.5272 28.5153 43.98C28.3102 43.5352 28.0546 43.1154 27.7537 42.7288C26.6337 41.0713 24.7713 38.3097 24.9377 36.0345C25.3185 38.3416 27.1777 41.1544 28.1057 42.492C28.5793 43.196 28.9249 43.7048 28.9409 43.9512C28.9761 44.476 28.1601 45.3657 27.6609 45.8713C28.1237 45.8078 28.5565 45.6059 28.9025 45.292L29.2545 44.9464C29.2545 45.5289 29.2769 46.1112 29.2897 46.6936C30.1441 46.2776 30.5377 45.0072 30.6145 44.9944C30.8353 45.388 31.2545 46.06 31.4593 46.4536C31.8625 45.6984 31.5297 44.588 31.5297 44.5848L31.4625 44.3544L32.9601 44.1048L31.4241 43.1448C31.3953 43.1 31.3633 43.0552 31.3313 43.0136L30.2753 38.5336V38.4408L30.8897 35.6185C31.1265 36.4088 30.7649 37.5384 30.7009 38.4984H30.7201ZM48.9601 25.5673C49.7153 25.9545 53.3313 27.5544 57.8497 25.388C57.4465 24.748 55.9297 22.6905 52.8353 21.3016C51.7009 21.4736 50.5431 21.4049 49.4369 21.1C49.5206 22.6093 49.3596 24.1222 48.9601 25.5801V25.5673ZM49.4081 20.6456C50.2625 20.9368 55.4593 22.3512 60.6433 15.6824C60.0033 15.3176 57.4568 14.197 53.2328 14.4722L53.4625 14.3545C51.863 15.1862 50.1655 15.8141 48.4097 16.2233C48.819 17.2704 49.1109 18.3598 49.2801 19.4713C49.3409 19.8617 49.3857 20.2552 49.4177 20.6456H49.4081ZM48.2401 15.8265C58.4577 13.3688 59.4945 7.57685 59.7313 6.22645C49.8113 5.90645 45.8433 10.3 45.0913 11.2793C46.451 12.5512 47.5244 14.098 48.2401 15.8169V15.8265ZM10.8801 21.1736C13.8113 21.5833 17.2513 21.2281 20.9377 19.2216C21.1841 19.5224 21.4273 19.788 21.5777 19.9513C21.1457 20.3417 20.0769 21.4104 20.3905 22.1912C20.3969 22.2305 20.3969 22.2704 20.3905 22.3097C20.3905 22.7225 20.0705 23.5897 19.2481 24.6201C18.4257 25.6505 17.0081 26.7992 14.8033 27.6984C12.5217 28.6296 9.38893 29.2985 5.12973 29.2696C5.66733 27.9897 7.96493 22.8696 10.8673 21.1864L10.8801 21.1736ZM21.3249 15.9065C18.9502 13.65 15.8309 12.3419 12.5569 12.2297C8.49933 9.45525 7.36013 3.82005 7.15213 2.53045C19.2193 3.83925 22.0993 10.2936 22.1089 10.3097L22.2113 10.5304L22.4001 10.3993C25.6557 8.29091 29.4929 7.26193 33.3665 7.45845C39.2353 7.74325 43.7505 10.6264 44.6689 11.4712C47.0401 13.5704 48.3905 16.5433 48.8545 19.5193C49.3569 22.7705 48.7937 26.0376 47.2737 28.2232C46.2136 29.7183 44.7998 30.9276 43.1585 31.7432C40.1761 33.2632 36.4705 33.6632 32.8289 33.244C29.1873 32.8249 25.6193 31.5385 22.9089 29.6441C21.3033 28.582 19.9703 27.1569 19.0177 25.484C19.2185 25.2807 19.4086 25.067 19.5873 24.844C20.4801 23.7785 20.8001 22.7801 20.8001 22.3001C20.803 22.2053 20.7878 22.1108 20.7553 22.0217C20.4833 21.3561 21.9841 20.1336 21.9873 20.1304L22.1697 19.9832L22.0065 19.8169C22.0065 19.8169 20.6369 18.4057 20.4801 17.7561C20.3489 17.1769 22.1313 15.7529 22.1377 15.7497L22.2593 15.6504L22.2017 15.5033C22.2017 15.5033 21.6993 14.2713 21.8145 13.8361C21.9297 13.4009 23.6449 12.8569 23.6481 12.8569C22.5473 12.3513 21.4369 13.5992 21.4081 13.7305C21.2897 14.1912 21.6193 15.1513 21.7569 15.5161C21.6545 15.6025 21.4977 15.7368 21.3185 15.9065H21.3249Z" fill="#552F82"/>
<path fill-rule="evenodd" clip-rule="evenodd" d="M53.6257 36.6484C54.0963 36.6478 54.5565 36.7867 54.9482 37.0475C55.34 37.3083 55.6456 37.6793 55.8266 38.1137C56.0076 38.5481 56.0557 39.0265 55.965 39.4882C55.8743 39.95 55.6487 40.3745 55.3168 40.7082C54.985 41.0419 54.5617 41.2697 54.1004 41.3629C53.6391 41.4561 53.1605 41.4105 52.7251 41.2319C52.2898 41.0532 51.9171 40.7496 51.6542 40.3592C51.3913 39.9689 51.25 39.5094 51.2481 39.0388C51.2468 38.7257 51.3073 38.4153 51.4262 38.1255C51.5451 37.8358 51.72 37.5723 51.9409 37.3503C52.1617 37.1282 52.4242 36.9519 52.7133 36.8315C53.0024 36.7111 53.3125 36.6489 53.6257 36.6484Z" fill="#8BD4F3"/>
<path fill-rule="evenodd" clip-rule="evenodd" d="M53.0693 37.4375C53.163 37.4375 53.2545 37.4653 53.3324 37.5173C53.4103 37.5694 53.471 37.6433 53.5069 37.7299C53.5427 37.8164 53.5521 37.9116 53.5338 38.0035C53.5155 38.0954 53.4704 38.1797 53.4042 38.246C53.338 38.3122 53.2536 38.3573 53.1617 38.3756C53.0698 38.3939 52.9746 38.3845 52.8881 38.3486C52.8015 38.3128 52.7276 38.2521 52.6755 38.1742C52.6235 38.0963 52.5957 38.0048 52.5957 37.9111C52.5953 37.8491 52.6071 37.7875 52.6306 37.7301C52.654 37.6727 52.6886 37.6204 52.7324 37.5764C52.7761 37.5324 52.8281 37.4975 52.8854 37.4736C52.9426 37.4498 53.0041 37.4375 53.0661 37.4375H53.0693Z" fill="white"/>
<path fill-rule="evenodd" clip-rule="evenodd" d="M52.6122 38.8906C52.6589 38.8906 52.7037 38.9092 52.7367 38.9422C52.7697 38.9752 52.7882 39.0199 52.7882 39.0666C52.7851 39.0895 52.7775 39.1116 52.7658 39.1316C52.7541 39.1515 52.7386 39.169 52.7202 39.1829C52.7018 39.1969 52.6808 39.2071 52.6584 39.213C52.6361 39.2188 52.6127 39.2202 52.5898 39.217C52.5516 39.2123 52.516 39.195 52.4888 39.1677C52.4615 39.1405 52.4442 39.1049 52.4395 39.0666C52.4394 39.0205 52.4575 38.9762 52.4899 38.9433C52.5222 38.9104 52.5661 38.8915 52.6122 38.8906Z" fill="white"/>
<path fill-rule="evenodd" clip-rule="evenodd" d="M54.6022 44.2539C54.8712 44.2539 55.1341 44.3337 55.3578 44.4831C55.5814 44.6325 55.7557 44.8449 55.8587 45.0935C55.9616 45.342 55.9885 45.6154 55.9361 45.8792C55.8836 46.143 55.7541 46.3854 55.5639 46.5756C55.3737 46.7658 55.1313 46.8953 54.8675 46.9478C54.6037 47.0002 54.3303 46.9733 54.0817 46.8704C53.8332 46.7674 53.6208 46.5931 53.4714 46.3695C53.322 46.1458 53.2422 45.8829 53.2422 45.6139C53.2422 45.2532 53.3855 44.9073 53.6405 44.6522C53.8956 44.3972 54.2415 44.2539 54.6022 44.2539Z" fill="#8BD4F3"/>
<path fill-rule="evenodd" clip-rule="evenodd" d="M54.4001 44.5742C54.4696 44.5749 54.5373 44.596 54.5948 44.6351C54.6523 44.6742 54.6969 44.7294 54.723 44.7937C54.7492 44.8581 54.7557 44.9288 54.7418 44.9968C54.7278 45.0649 54.694 45.1273 54.6447 45.1762C54.5953 45.2251 54.5326 45.2584 54.4644 45.2717C54.3962 45.285 54.3256 45.2778 54.2615 45.2511C54.1974 45.2244 54.1426 45.1793 54.104 45.1215C54.0655 45.0636 54.0449 44.9957 54.0449 44.9262C54.0449 44.8797 54.0541 44.8337 54.072 44.7908C54.0899 44.7479 54.1161 44.7089 54.1492 44.6762C54.1822 44.6435 54.2214 44.6176 54.2644 44.6001C54.3075 44.5826 54.3536 44.5738 54.4001 44.5742Z" fill="white"/>
<path fill-rule="evenodd" clip-rule="evenodd" d="M54.0609 45.6484C54.0957 45.6484 54.1291 45.6623 54.1537 45.6869C54.1783 45.7115 54.1921 45.7448 54.1921 45.7796C54.1921 45.8144 54.1783 45.8478 54.1537 45.8724C54.1291 45.897 54.0957 45.9108 54.0609 45.9108C54.0261 45.9108 53.9927 45.897 53.9681 45.8724C53.9435 45.8478 53.9297 45.8144 53.9297 45.7796C53.9312 45.7453 53.9456 45.7129 53.9698 45.6886C53.9941 45.6643 54.0266 45.65 54.0609 45.6484Z" fill="white"/>
<path fill-rule="evenodd" clip-rule="evenodd" d="M15.1816 29.7598C15.6525 29.7598 16.1128 29.8994 16.5043 30.161C16.8958 30.4226 17.201 30.7944 17.3812 31.2295C17.5613 31.6645 17.6085 32.1432 17.5166 32.605C17.4248 33.0669 17.198 33.4911 16.8651 33.824C16.5321 34.157 16.1079 34.3838 15.6461 34.4756C15.1842 34.5675 14.7055 34.5203 14.2705 34.3401C13.8355 34.1599 13.4636 33.8548 13.202 33.4633C12.9404 33.0717 12.8008 32.6114 12.8008 32.1406C12.8008 31.5091 13.0516 30.9036 13.4981 30.4571C13.9446 30.0106 14.5502 29.7598 15.1816 29.7598V29.7598Z" fill="#8BD4F3"/>
<path fill-rule="evenodd" clip-rule="evenodd" d="M14.6221 30.5586C14.7155 30.5586 14.8068 30.5862 14.8845 30.638C14.9623 30.6897 15.023 30.7633 15.059 30.8495C15.095 30.9357 15.1048 31.0306 15.087 31.1223C15.0692 31.214 15.0248 31.2983 14.9592 31.3648C14.8936 31.4313 14.8098 31.4769 14.7183 31.4959C14.6269 31.5149 14.5319 31.5064 14.4452 31.4716C14.3586 31.4367 14.2842 31.377 14.2314 31.2999C14.1786 31.2229 14.1497 31.132 14.1485 31.0386C14.1476 30.9759 14.1593 30.9136 14.1827 30.8554C14.2061 30.7972 14.2408 30.7442 14.2849 30.6996C14.329 30.6549 14.3815 30.6194 14.4394 30.5952C14.4972 30.571 14.5593 30.5586 14.6221 30.5586Z" fill="white"/>
<path fill-rule="evenodd" clip-rule="evenodd" d="M14.1663 32C14.2011 32 14.2351 32.0103 14.264 32.0297C14.293 32.049 14.3155 32.0765 14.3289 32.1086C14.3422 32.1408 14.3457 32.1762 14.3389 32.2103C14.3321 32.2445 14.3153 32.2758 14.2907 32.3004C14.2661 32.3251 14.2347 32.3418 14.2006 32.3486C14.1665 32.3554 14.1311 32.3519 14.0989 32.3386C14.0668 32.3253 14.0393 32.3027 14.0199 32.2738C14.0006 32.2448 13.9903 32.2108 13.9903 32.176C13.9898 32.1533 13.9939 32.1307 14.0022 32.1096C14.0105 32.0885 14.0229 32.0692 14.0386 32.0529C14.0544 32.0365 14.0732 32.0234 14.094 32.0144C14.1148 32.0053 14.1372 32.0004 14.1599 32H14.1663Z" fill="white"/>
<path fill-rule="evenodd" clip-rule="evenodd" d="M18.3308 38.3281C18.5087 38.3281 18.6825 38.3809 18.8304 38.4797C18.9783 38.5785 19.0935 38.7189 19.1616 38.8832C19.2297 39.0475 19.2475 39.2283 19.2128 39.4027C19.1781 39.5772 19.0924 39.7374 18.9667 39.8632C18.8409 39.9889 18.6807 40.0745 18.5063 40.1092C18.3318 40.1439 18.151 40.1261 17.9867 40.0581C17.8224 39.99 17.682 39.8748 17.5832 39.7269C17.4844 39.579 17.4316 39.4052 17.4316 39.2273C17.4316 38.9897 17.526 38.7618 17.6941 38.5938C17.8621 38.4257 18.09 38.3313 18.3276 38.3313L18.3308 38.3281Z" fill="#8BD4F3"/>
<path fill-rule="evenodd" clip-rule="evenodd" d="M18.1747 38.6875C18.2177 38.6875 18.2598 38.7003 18.2955 38.7242C18.3313 38.7481 18.3592 38.7821 18.3757 38.8219C18.3922 38.8616 18.3965 38.9054 18.3881 38.9476C18.3797 38.9898 18.359 39.0286 18.3285 39.059C18.2981 39.0894 18.2593 39.1102 18.2171 39.1186C18.1749 39.1269 18.1311 39.1226 18.0914 39.1062C18.0516 39.0897 18.0176 39.0618 17.9937 39.026C17.9698 38.9902 17.9571 38.9482 17.9571 38.9051C17.9566 38.8764 17.962 38.8479 17.9727 38.8213C17.9835 38.7948 17.9995 38.7706 18.0198 38.7503C18.0401 38.73 18.0643 38.714 18.0909 38.7032C18.1175 38.6924 18.146 38.6871 18.1747 38.6875Z" fill="white"/>
<path fill-rule="evenodd" clip-rule="evenodd" d="M17.9667 39.3594C17.9825 39.3594 17.998 39.3641 18.0112 39.3729C18.0243 39.3816 18.0346 39.3941 18.0406 39.4088C18.0467 39.4234 18.0483 39.4395 18.0452 39.455C18.0421 39.4705 18.0345 39.4848 18.0233 39.4959C18.0121 39.5071 17.9978 39.5148 17.9823 39.5178C17.9668 39.5209 17.9507 39.5193 17.9361 39.5133C17.9215 39.5072 17.909 39.497 17.9002 39.4838C17.8914 39.4707 17.8867 39.4552 17.8867 39.4394C17.8867 39.4182 17.8951 39.3978 17.9102 39.3828C17.9252 39.3678 17.9455 39.3594 17.9667 39.3594Z" fill="white"/>
<path fill-rule="evenodd" clip-rule="evenodd" d="M15.7409 35.8398C16.0105 35.8392 16.2742 35.9185 16.4988 36.0678C16.7233 36.2171 16.8985 36.4296 17.0023 36.6784C17.106 36.9273 17.1337 37.2013 17.0817 37.4658C17.0297 37.7304 16.9004 37.9736 16.7102 38.1647C16.52 38.3558 16.2775 38.4862 16.0131 38.5394C15.7488 38.5926 15.4747 38.5663 15.2253 38.4637C14.976 38.3611 14.7627 38.1869 14.6124 37.9631C14.4621 37.7392 14.3815 37.4759 14.3809 37.2062C14.3804 37.0272 14.4153 36.8499 14.4834 36.6843C14.5515 36.5188 14.6516 36.3683 14.7779 36.2414C14.9042 36.1145 15.0542 36.0137 15.2194 35.9448C15.3847 35.8759 15.5618 35.8403 15.7409 35.8398Z" fill="#8BD4F3"/>
<path fill-rule="evenodd" clip-rule="evenodd" d="M15.5427 36.1602C15.613 36.1602 15.6816 36.181 15.74 36.22C15.7985 36.259 15.844 36.3145 15.8709 36.3794C15.8977 36.4443 15.9048 36.5157 15.8911 36.5847C15.8774 36.6536 15.8435 36.7168 15.7939 36.7665C15.7442 36.8162 15.6809 36.85 15.612 36.8637C15.5431 36.8774 15.4717 36.8704 15.4068 36.8435C15.3419 36.8166 15.2864 36.7711 15.2474 36.7127C15.2083 36.6543 15.1875 36.5856 15.1875 36.5154C15.1875 36.4212 15.2249 36.3308 15.2915 36.2642C15.3581 36.1976 15.4485 36.1602 15.5427 36.1602Z" fill="white"/>
<path fill-rule="evenodd" clip-rule="evenodd" d="M15.2007 37.2383C15.2355 37.2383 15.2688 37.2521 15.2934 37.2767C15.3181 37.3013 15.3319 37.3347 15.3319 37.3695C15.3346 37.3865 15.334 37.4039 15.33 37.4207C15.326 37.4374 15.3187 37.4533 15.3086 37.4672C15.2985 37.4812 15.2858 37.493 15.2711 37.5021C15.2564 37.5111 15.2401 37.5172 15.2231 37.5199C15.1888 37.5246 15.1541 37.5159 15.1261 37.4956C15.0981 37.4754 15.0789 37.4451 15.0727 37.4111C15.0695 37.3974 15.0695 37.3832 15.0727 37.3695C15.0722 37.3527 15.0751 37.3359 15.0812 37.3202C15.0872 37.3046 15.0963 37.2902 15.1079 37.278C15.1195 37.2658 15.1334 37.2561 15.1487 37.2492C15.1641 37.2424 15.1807 37.2387 15.1975 37.2383H15.2007Z" fill="white"/>
<path fill-rule="evenodd" clip-rule="evenodd" d="M45.594 53.6094C45.3351 53.6094 45.0821 53.6861 44.8668 53.8299C44.6516 53.9738 44.4838 54.1782 44.3848 54.4173C44.2857 54.6565 44.2598 54.9196 44.3103 55.1735C44.3608 55.4274 44.4855 55.6606 44.6685 55.8436C44.8515 56.0267 45.0847 56.1513 45.3386 56.2018C45.5925 56.2523 45.8557 56.2264 46.0948 56.1274C46.334 56.0283 46.5384 55.8605 46.6822 55.6453C46.826 55.4301 46.9027 55.177 46.9027 54.9182C46.9027 54.5711 46.7649 54.2382 46.5194 53.9927C46.274 53.7473 45.9411 53.6094 45.594 53.6094Z" fill="#8BD4F3"/>
<path fill-rule="evenodd" clip-rule="evenodd" d="M45.9018 54.0508C45.8505 54.0508 45.8004 54.066 45.7578 54.0945C45.7151 54.1229 45.6819 54.1634 45.6623 54.2108C45.6427 54.2582 45.6376 54.3103 45.6476 54.3605C45.6576 54.4108 45.6822 54.457 45.7185 54.4933C45.7547 54.5295 45.8009 54.5542 45.8512 54.5642C45.9015 54.5742 45.9536 54.5691 46.001 54.5495C46.0483 54.5298 46.0888 54.4966 46.1173 54.454C46.1458 54.4114 46.161 54.3612 46.161 54.31C46.161 54.2412 46.1337 54.1753 46.0851 54.1267C46.0364 54.0781 45.9705 54.0508 45.9018 54.0508Z" fill="white"/>
<path fill-rule="evenodd" clip-rule="evenodd" d="M46.1508 54.8418C46.1258 54.8433 46.1022 54.8539 46.0846 54.8716C46.0669 54.8893 46.0563 54.9128 46.0547 54.9378C46.0543 54.9505 46.0565 54.9632 46.0611 54.9751C46.0658 54.9869 46.0729 54.9977 46.0819 55.0067C46.0909 55.0157 46.1016 55.0227 46.1135 55.0274C46.1253 55.0321 46.138 55.0342 46.1508 55.0338C46.1629 55.0342 46.1751 55.0322 46.1865 55.028C46.1979 55.0237 46.2084 55.0172 46.2173 55.0089C46.2262 55.0006 46.2334 54.9906 46.2385 54.9795C46.2435 54.9684 46.2463 54.9564 46.2468 54.9442C46.2472 54.9315 46.245 54.9188 46.2404 54.9069C46.2357 54.8951 46.2286 54.8843 46.2196 54.8753C46.2106 54.8663 46.1999 54.8593 46.188 54.8546C46.1762 54.8499 46.1635 54.8478 46.1508 54.8482V54.8418Z" fill="white"/>
<path fill-rule="evenodd" clip-rule="evenodd" d="M44.11 56.0586C44.0125 56.0586 43.9172 56.0875 43.8362 56.1416C43.7552 56.1958 43.692 56.2728 43.6547 56.3628C43.6174 56.4529 43.6076 56.5519 43.6267 56.6475C43.6457 56.7431 43.6926 56.8309 43.7615 56.8999C43.8304 56.9688 43.9183 57.0157 44.0138 57.0347C44.1094 57.0537 44.2085 57.044 44.2986 57.0067C44.3886 56.9694 44.4656 56.9062 44.5197 56.8252C44.5739 56.7441 44.6028 56.6489 44.6028 56.5514C44.6028 56.4207 44.5509 56.2953 44.4584 56.2029C44.366 56.1105 44.2407 56.0586 44.11 56.0586Z" fill="#8BD4F3"/>
<path fill-rule="evenodd" clip-rule="evenodd" d="M44.1968 56.2553C44.165 56.2505 44.1327 56.2582 44.1065 56.2767C44.0803 56.2952 44.0622 56.323 44.056 56.3545C44.0513 56.3866 44.0594 56.4194 44.0786 56.4457C44.0977 56.472 44.1263 56.4898 44.1584 56.4953H44.1968C44.2252 56.4906 44.2511 56.476 44.2698 56.454C44.2885 56.432 44.2987 56.4041 44.2987 56.3753C44.2987 56.3464 44.2885 56.3185 44.2698 56.2965C44.2511 56.2746 44.2252 56.2599 44.1968 56.2553Z" fill="white"/>
<path fill-rule="evenodd" clip-rule="evenodd" d="M44.3124 56.6172C44.3035 56.6172 44.2949 56.6198 44.2875 56.6247C44.2801 56.6297 44.2744 56.6367 44.271 56.6448C44.2676 56.653 44.2667 56.662 44.2684 56.6707C44.2702 56.6794 44.2744 56.6874 44.2807 56.6937C44.287 56.6999 44.2949 56.7042 44.3036 56.7059C44.3123 56.7077 44.3213 56.7068 44.3295 56.7034C44.3377 56.7 44.3447 56.6942 44.3496 56.6869C44.3546 56.6795 44.3572 56.6708 44.3572 56.662C44.3572 56.6501 44.3525 56.6387 44.3441 56.6303C44.3357 56.6219 44.3243 56.6172 44.3124 56.6172Z" fill="white"/>
<path fill-rule="evenodd" clip-rule="evenodd" d="M45.0593 57.7852C44.9112 57.7852 44.7665 57.8291 44.6433 57.9114C44.5202 57.9936 44.4242 58.1106 44.3675 58.2474C44.3109 58.3842 44.296 58.5348 44.3249 58.68C44.3538 58.8253 44.4251 58.9587 44.5299 59.0634C44.6346 59.1682 44.768 59.2395 44.9133 59.2684C45.0585 59.2973 45.2091 59.2824 45.3459 59.2258C45.4827 59.1691 45.5997 59.0731 45.6819 58.95C45.7642 58.8268 45.8081 58.6821 45.8081 58.534C45.8081 58.3354 45.7293 58.1449 45.5888 58.0045C45.4484 57.864 45.2579 57.7852 45.0593 57.7852Z" fill="#8BD4F3"/>
<path fill-rule="evenodd" clip-rule="evenodd" d="M45.1686 57.9602C45.1176 57.9602 45.0688 57.9805 45.0328 58.0165C44.9968 58.0525 44.9766 58.1013 44.9766 58.1522C44.9766 58.1908 44.988 58.2286 45.0095 58.2607C45.0309 58.2928 45.0614 58.3178 45.0971 58.3326C45.1327 58.3473 45.172 58.3512 45.2098 58.3437C45.2477 58.3361 45.2825 58.3176 45.3098 58.2903C45.3371 58.263 45.3557 58.2282 45.3632 58.1903C45.3708 58.1524 45.3669 58.1132 45.3521 58.0775C45.3373 58.0419 45.3123 58.0114 45.2802 57.9899C45.2481 57.9685 45.2104 57.957 45.1718 57.957L45.1686 57.9602Z" fill="white"/>
<path fill-rule="evenodd" clip-rule="evenodd" d="M45.3575 58.5606C45.348 58.5583 45.3381 58.558 45.3285 58.5596C45.3189 58.5613 45.3097 58.565 45.3016 58.5704C45.2935 58.5758 45.2866 58.5829 45.2813 58.5911C45.276 58.5993 45.2726 58.6086 45.2711 58.6182C45.2672 58.6369 45.2707 58.6563 45.2808 58.6724C45.291 58.6885 45.307 58.7001 45.3255 58.7046H45.3575C45.3761 58.7046 45.394 58.6972 45.4072 58.684C45.4204 58.6708 45.4279 58.6529 45.4279 58.6342C45.4283 58.625 45.4269 58.6157 45.4237 58.607C45.4206 58.5983 45.4158 58.5903 45.4095 58.5835C45.4033 58.5767 45.3958 58.5711 45.3874 58.5672C45.379 58.5633 45.3699 58.561 45.3607 58.5606H45.3575Z" fill="white"/>
<path d="M75.9027 43.2L90.1027 20.6L90.1427 20.56V20.52C90.1427 20.4933 90.1293 20.48 90.1027 20.48H76.5427C76.196 20.48 75.8893 20.3467 75.6227 20.08C75.356 19.8133 75.2227 19.4933 75.2227 19.12C75.2227 18.7733 75.3427 18.4667 75.5827 18.2C75.8493 17.9333 76.1693 17.8 76.5427 17.8H92.5427C92.916 17.8 93.2227 17.9333 93.4627 18.2C93.7293 18.4667 93.8627 18.7733 93.8627 19.12C93.8627 20.1067 93.636 20.9333 93.1827 21.6L78.9827 44.2L78.9427 44.24V44.28C78.9427 44.3067 78.956 44.32 78.9827 44.32H92.5427C92.8893 44.32 93.196 44.4533 93.4627 44.72C93.7293 44.9867 93.8627 45.3067 93.8627 45.68C93.8627 46.0267 93.7293 46.3333 93.4627 46.6C93.2227 46.8667 92.916 47 92.5427 47H76.5427C76.1693 47 75.8493 46.8667 75.5827 46.6C75.3427 46.3333 75.2227 46.0267 75.2227 45.68C75.2227 44.6933 75.4493 43.8667 75.9027 43.2ZM109.17 36C106.53 36 104.53 36.4267 103.17 37.28C101.837 38.1333 101.17 39.3333 101.17 40.88C101.17 42.08 101.503 43.0533 102.17 43.8C102.863 44.52 103.77 44.88 104.89 44.88C106.81 44.88 108.397 44.24 109.65 42.96C110.93 41.68 111.57 39.9867 111.57 37.88V36.36C111.57 36.12 111.45 36 111.21 36H109.17ZM104.25 47.4C102.437 47.4 100.957 46.8267 99.8098 45.68C98.6632 44.5333 98.0898 43.0133 98.0898 41.12C98.0898 38.9067 98.9698 37.1333 100.73 35.8C102.49 34.4667 105.303 33.8 109.17 33.8H111.21C111.45 33.8 111.57 33.6933 111.57 33.48V32.72C111.57 31.0933 111.197 29.96 110.45 29.32C109.703 28.6533 108.383 28.32 106.49 28.32C104.65 28.32 102.663 28.6667 100.53 29.36C100.21 29.4667 99.9165 29.4267 99.6498 29.24C99.3832 29.0533 99.2498 28.7867 99.2498 28.44C99.2498 27.5067 99.6898 26.9067 100.57 26.64C102.543 26.08 104.517 25.8 106.49 25.8C109.557 25.8 111.677 26.36 112.85 27.48C114.05 28.6 114.65 30.6133 114.65 33.52V45.56C114.65 45.96 114.503 46.3067 114.21 46.6C113.943 46.8667 113.61 47 113.21 47C112.81 47 112.463 46.8667 112.17 46.6C111.877 46.3067 111.73 45.96 111.73 45.56L111.69 43.48C111.69 43.4533 111.677 43.44 111.65 43.44C111.597 43.44 111.57 43.4667 111.57 43.52C109.997 46.1067 107.557 47.4 104.25 47.4ZM123.177 46.52C122.884 46.84 122.51 47 122.057 47C121.604 47 121.217 46.84 120.897 46.52C120.604 46.2 120.457 45.8267 120.457 45.4V27.72C120.457 27.2933 120.604 26.9333 120.897 26.64C121.19 26.3467 121.55 26.2 121.977 26.2C122.404 26.2 122.764 26.3467 123.057 26.64C123.35 26.9333 123.497 27.2933 123.497 27.72V30.8C123.497 30.8267 123.51 30.84 123.537 30.84C123.59 30.84 123.617 30.8133 123.617 30.76C124.417 29.4267 125.537 28.36 126.977 27.56C128.444 26.7333 130.084 26.28 131.897 26.2C132.27 26.1733 132.59 26.2933 132.857 26.56C133.124 26.8267 133.257 27.1467 133.257 27.52C133.257 27.8667 133.124 28.1733 132.857 28.44C132.617 28.7067 132.31 28.8533 131.937 28.88C129.297 28.9867 127.257 29.76 125.817 31.2C124.377 32.6133 123.657 34.6 123.657 37.16V45.4C123.657 45.8267 123.497 46.2 123.177 46.52ZM138.865 29.4C138.518 29.4 138.225 29.2933 137.985 29.08C137.772 28.84 137.665 28.5467 137.665 28.2C137.665 27.8533 137.772 27.5733 137.985 27.36C138.225 27.12 138.518 27 138.865 27H142.225C142.465 27 142.585 26.88 142.585 26.64V24.72C142.585 22.16 143.118 20.3067 144.185 19.16C145.278 17.9867 147.012 17.4 149.385 17.4C150.265 17.4 151.078 17.4933 151.825 17.68C152.172 17.76 152.452 17.9467 152.665 18.24C152.878 18.5067 152.985 18.8267 152.985 19.2C152.985 19.4933 152.865 19.7333 152.625 19.92C152.385 20.08 152.132 20.12 151.865 20.04C151.225 19.88 150.572 19.8 149.905 19.8C148.358 19.8 147.278 20.1467 146.665 20.84C146.078 21.5067 145.785 22.76 145.785 24.6V26.64C145.785 26.88 145.905 27 146.145 27H151.385C151.732 27 152.012 27.12 152.225 27.36C152.465 27.5733 152.585 27.8533 152.585 28.2C152.585 28.5467 152.465 28.84 152.225 29.08C152.012 29.2933 151.732 29.4 151.385 29.4H146.145C145.905 29.4 145.785 29.52 145.785 29.76V45.4C145.785 45.8267 145.625 46.2 145.305 46.52C144.985 46.84 144.612 47 144.185 47C143.758 47 143.385 46.84 143.065 46.52C142.745 46.2 142.585 45.8267 142.585 45.4V29.76C142.585 29.52 142.465 29.4 142.225 29.4H138.865Z" fill="white"/>
<defs>
<linearGradient id="paint0_linear_9231_14060" x1="31.1961" y1="61.3765" x2="31.1961" y2="1.805" gradientUnits="userSpaceOnUse">
<stop stop-color="#7BD5F5"/>
<stop offset="1" stop-color="#DCCFE5"/>
</linearGradient>
<linearGradient id="paint1_linear_9231_14060" x1="31.1961" y1="61.3765" x2="31.1961" y2="1.805" gradientUnits="userSpaceOnUse">
<stop stop-color="#7BD5F5"/>
<stop offset="1" stop-color="#DCCFE5"/>
</linearGradient>
<linearGradient id="paint2_linear_9231_14060" x1="31.1961" y1="61.3765" x2="31.1961" y2="1.805" gradientUnits="userSpaceOnUse">
<stop stop-color="#7BD5F5"/>
<stop offset="1" stop-color="#DCCFE5"/>
</linearGradient>
<linearGradient id="paint3_linear_9231_14060" x1="31.1961" y1="61.3765" x2="31.1961" y2="1.805" gradientUnits="userSpaceOnUse">
<stop stop-color="#7BD5F5"/>
<stop offset="1" stop-color="#DCCFE5"/>
</linearGradient>
<linearGradient id="paint4_linear_9231_14060" x1="31.1961" y1="61.3765" x2="31.1961" y2="1.805" gradientUnits="userSpaceOnUse">
<stop stop-color="#7BD5F5"/>
<stop offset="1" stop-color="#DCCFE5"/>
</linearGradient>
<linearGradient id="paint5_linear_9231_14060" x1="31.1961" y1="61.3765" x2="31.1961" y2="1.805" gradientUnits="userSpaceOnUse">
<stop stop-color="#7BD5F5"/>
<stop offset="1" stop-color="#DCCFE5"/>
</linearGradient>
<linearGradient id="paint6_linear_9231_14060" x1="31.1961" y1="61.3765" x2="31.1961" y2="1.805" gradientUnits="userSpaceOnUse">
<stop stop-color="#7BD5F5"/>
<stop offset="1" stop-color="#DCCFE5"/>
</linearGradient>
<linearGradient id="paint7_linear_9231_14060" x1="31.1961" y1="61.3765" x2="31.1961" y2="1.805" gradientUnits="userSpaceOnUse">
<stop stop-color="#7BD5F5"/>
<stop offset="1" stop-color="#DCCFE5"/>
</linearGradient>
<linearGradient id="paint8_linear_9231_14060" x1="31.1961" y1="61.3765" x2="31.1961" y2="1.805" gradientUnits="userSpaceOnUse">
<stop stop-color="#7BD5F5"/>
<stop offset="1" stop-color="#DCCFE5"/>
</linearGradient>
</defs>
</svg>
